<svg width="1000" height="300" xmlns="http://www.w3.org/2000/svg" xmlns:xlink="http://www.w3.org/1999/xlink" version="1.1" baseProfile="full" viewBox="0 0 1000 300">
<rect width="1000" height="300" x="0" y="0" id="0" fill="#ffffff"></rect>
<polyline points="540.6 45.1 546 31.1 561 31.1" fill="none" stroke="#5470c6"></polyline>
<polyline points="600.4 99.3 613.8 92.6 628.8 92.6" fill="none" stroke="#91cc75"></polyline>
<polyline points="608.4 180.1 622.9 184.1 637.9 184.1" fill="none" stroke="#fac858"></polyline>
<polyline points="557.8 246.5 565.6 259.4 580.6 259.4" fill="none" stroke="#ee6666"></polyline>
<polyline points="484.6 261.4 482.6 276.3 467.6 276.3" fill="none" stroke="#73c0de"></polyline>
<polyline points="403.3 207.4 390.4 215.1 375.4 215.1" fill="none" stroke="#3ba272"></polyline>
<polyline points="423.3 67.7 413.1 56.7 398.1 56.7" fill="none" stroke="#fc8452"></polyline>
<path d="M500 37.5A112.5 112.5 0 0 1 575.8 66.8L500 150Z" fill="#5470c6" stroke="#fff" stroke-width="2" stroke-linejoin="round"></path>
<path d="M575.8 66.8A112.5 112.5 0 0 1 611.9 138.5L500 150Z" fill="#91cc75" stroke="#fff" stroke-width="2" stroke-linejoin="round"></path>
<path d="M611.9 138.5A112.5 112.5 0 0 1 590 217.5L500 150Z" fill="#fac858" stroke="#fff" stroke-width="2" stroke-linejoin="round"></path>
<path d="M590 217.5A112.5 112.5 0 0 1 517.1 261.2L500 150Z" fill="#ee6666" stroke="#fff" stroke-width="2" stroke-linejoin="round"></path>
<path d="M517.1 261.2A112.5 112.5 0 0 1 453.4 252.4L500 150Z" fill="#73c0de" stroke="#fff" stroke-width="2" stroke-linejoin="round"></path>
<path d="M453.4 252.4A112.5 112.5 0 0 1 387.8 141.9L500 150Z" fill="#3ba272" stroke="#fff" stroke-width="2" stroke-linejoin="round"></path>
<path d="M387.8 141.9A112.5 112.5 0 0 1 500 37.5L500 150Z" fill="#fc8452" stroke="#fff" stroke-width="2" stroke-linejoin="round"></path>
<path d="M0 -15l42.8 0l0 30l-42.8 0Z" transform="translate(566.0407 31.103)" fill="none"></path>
<text dominant-baseline="central" text-anchor="start" style="font-size:12px;font-family:sans-serif;font-weight:bold;" y="-7.5" transform="translate(566.0407 31.103)" fill="#333" stroke="rgb(255,255,255)" stroke-width="2" paint-order="stroke" stroke-miterlimit="2">Monday</text>
<text dominant-baseline="central" text-anchor="start" style="font-size:12px;font-family:sans-serif;" y="7.5" transform="translate(566.0407 31.103)" fill="#333" stroke="rgb(255,255,255)" stroke-width="2" paint-order="stroke" stroke-miterlimit="2">11.76%</text>
<path d="M0 -15l46.2 0l0 30l-46.2 0Z" transform="translate(633.8388 92.5807)" fill="none"></path>
<text dominant-baseline="central" text-anchor="start" style="font-size:12px;font-family:sans-serif;font-weight:bold;" y="-7.5" transform="translate(633.8388 92.5807)" fill="#333" stroke="rgb(255,255,255)" stroke-width="2" paint-order="stroke" stroke-miterlimit="2">Tuesday</text>
<text dominant-baseline="central" text-anchor="start" style="font-size:12px;font-family:sans-serif;" y="7.5" transform="translate(633.8388 92.5807)" fill="#333" stroke="rgb(255,255,255)" stroke-width="2" paint-order="stroke" stroke-miterlimit="2">11.61%</text>
<path d="M0 -15l63.6 0l0 30l-63.6 0Z" transform="translate(642.8641 184.0686)" fill="none"></path>
<text dominant-baseline="central" text-anchor="start" style="font-size:12px;font-family:sans-serif;font-weight:bold;" y="-7.5" transform="translate(642.8641 184.0686)" fill="#333" stroke="rgb(255,255,255)" stroke-width="2" paint-order="stroke" stroke-miterlimit="2">Wednesday</text>
<text dominant-baseline="central" text-anchor="start" style="font-size:12px;font-family:sans-serif;" y="7.5" transform="translate(642.8641 184.0686)" fill="#333" stroke="rgb(255,255,255)" stroke-width="2" paint-order="stroke" stroke-miterlimit="2">11.87%</text>
<path d="M0 -15l50.2 0l0 30l-50.2 0Z" transform="translate(585.5567 259.3552)" fill="none"></path>
<text dominant-baseline="central" text-anchor="start" style="font-size:12px;font-family:sans-serif;font-weight:bold;" y="-7.5" transform="translate(585.5567 259.3552)" fill="#333" stroke="rgb(255,255,255)" stroke-width="2" paint-order="stroke" stroke-miterlimit="2">Thursday</text>
<text dominant-baseline="central" text-anchor="start" style="font-size:12px;font-family:sans-serif;" y="7.5" transform="translate(585.5567 259.3552)" fill="#333" stroke="rgb(255,255,255)" stroke-width="2" paint-order="stroke" stroke-miterlimit="2">12.33%</text>
<path d="M-34.2 -15l34.2 0l0 30l-34.2 0Z" transform="translate(462.5508 276.3003)" fill="none"></path>
<text dominant-baseline="central" text-anchor="end" style="font-size:12px;font-family:sans-serif;font-weight:bold;" y="-7.5" transform="translate(462.5508 276.3003)" fill="#333" stroke="rgb(255,255,255)" stroke-width="2" paint-order="stroke" stroke-miterlimit="2">Friday</text>
<text dominant-baseline="central" text-anchor="end" style="font-size:12px;font-family:sans-serif;" y="7.5" transform="translate(462.5508 276.3003)" fill="#333" stroke="rgb(255,255,255)" stroke-width="2" paint-order="stroke" stroke-miterlimit="2">9.23%</text>
<path d="M-48.2 -15l48.2 0l0 30l-48.2 0Z" transform="translate(370.3779 215.1095)" fill="none"></path>
<text dominant-baseline="central" text-anchor="end" style="font-size:12px;font-family:sans-serif;font-weight:bold;" y="-7.5" transform="translate(370.3779 215.1095)" fill="#333" stroke="rgb(255,255,255)" stroke-width="2" paint-order="stroke" stroke-miterlimit="2">Saturday</text>
<text dominant-baseline="central" text-anchor="end" style="font-size:12px;font-family:sans-serif;" y="7.5" transform="translate(370.3779 215.1095)" fill="#333" stroke="rgb(255,255,255)" stroke-width="2" paint-order="stroke" stroke-miterlimit="2">19.34%</text>
<path d="M-40.9 -15l40.9 0l0 30l-40.9 0Z" transform="translate(393.1299 56.6735)" fill="none"></path>
<text dominant-baseline="central" text-anchor="end" style="font-size:12px;font-family:sans-serif;font-weight:bold;" y="-7.5" transform="translate(393.1299 56.6735)" fill="#333" stroke="rgb(255,255,255)" stroke-width="2" paint-order="stroke" stroke-miterlimit="2">Sunday</text>
<text dominant-baseline="central" text-anchor="end" style="font-size:12px;font-family:sans-serif;" y="7.5" transform="translate(393.1299 56.6735)" fill="#333" stroke="rgb(255,255,255)" stroke-width="2" paint-order="stroke" stroke-miterlimit="2">23.86%</text>
</svg>