<svg width="1000" height="300" xmlns="http://www.w3.org/2000/svg" xmlns:xlink="http://www.w3.org/1999/xlink" version="1.1" baseProfile="full" viewBox="0 0 1000 300">
<rect width="1000" height="300" x="0" y="0" id="0" fill="#ffffff"></rect>
<path d="M58.2 271.5L931.8 271.5" fill="none" stroke="#E0E6F1"></path>
<path d="M58.2 223.5L931.8 223.5" fill="none" stroke="#E0E6F1"></path>
<path d="M58.2 175.5L931.8 175.5" fill="none" stroke="#E0E6F1"></path>
<path d="M58.2 127.5L931.8 127.5" fill="none" stroke="#E0E6F1"></path>
<path d="M58.2 79.5L931.8 79.5" fill="none" stroke="#E0E6F1"></path>
<path d="M58.2 60.5L931.8 60.5" fill="none" stroke="#E0E6F1"></path>
<path d="M58.2 271.5L931.8 271.5" fill="none" stroke="#6E7079" stroke-linecap="round"></path>
<path d="M61.5 271L61.5 276" fill="none" stroke="#6E7079"></path>
<path d="M110.5 271L110.5 276" fill="none" stroke="#6E7079"></path>
<path d="M159.5 271L159.5 276" fill="none" stroke="#6E7079"></path>
<path d="M208.5 271L208.5 276" fill="none" stroke="#6E7079"></path>
<path d="M257.5 271L257.5 276" fill="none" stroke="#6E7079"></path>
<path d="M306.5 271L306.5 276" fill="none" stroke="#6E7079"></path>
<path d="M356.5 271L356.5 276" fill="none" stroke="#6E7079"></path>
<path d="M405.5 271L405.5 276" fill="none" stroke="#6E7079"></path>
<path d="M454.5 271L454.5 276" fill="none" stroke="#6E7079"></path>
<path d="M503.5 271L503.5 276" fill="none" stroke="#6E7079"></path>
<path d="M552.5 271L552.5 276" fill="none" stroke="#6E7079"></path>
<path d="M601.5 271L601.5 276" fill="none" stroke="#6E7079"></path>
<path d="M650.5 271L650.5 276" fill="none" stroke="#6E7079"></path>
<path d="M700.5 271L700.5 276" fill="none" stroke="#6E7079"></path>
<path d="M749.5 271L749.5 276" fill="none" stroke="#6E7079"></path>
<path d="M798.5 271L798.5 276" fill="none" stroke="#6E7079"></path>
<path d="M847.5 271L847.5 276" fill="none" stroke="#6E7079"></path>
<path d="M896.5 271L896.5 276" fill="none" stroke="#6E7079"></path>
<text dominant-baseline="central" text-anchor="end" style="font-size:12px;font-family:sans-serif;" transform="translate(50.16 271)" fill="#6E7079">0</text>
<text dominant-baseline="central" text-anchor="end" style="font-size:12px;font-family:sans-serif;" transform="translate(50.16 223.0455)" fill="#6E7079">150</text>
<text dominant-baseline="central" text-anchor="end" style="font-size:12px;font-family:sans-serif;" transform="translate(50.16 175.0909)" fill="#6E7079">300</text>
<text dominant-baseline="central" text-anchor="end" style="font-size:12px;font-family:sans-serif;" transform="translate(50.16 127.1364)" fill="#6E7079">450</text>
<text dominant-baseline="central" text-anchor="end" style="font-size:12px;font-family:sans-serif;" transform="translate(50.16 79.1818)" fill="#6E7079">600</text>
<text dominant-baseline="central" text-anchor="end" style="font-size:12px;font-family:sans-serif;" transform="translate(50.16 60)" fill="#6E7079">660</text>
<text dominant-baseline="central" text-anchor="start" style="font-size:12px;font-family:sans-serif;" transform="translate(939.84 271)" fill="#6E7079">0</text>
<text dominant-baseline="central" text-anchor="start" style="font-size:12px;font-family:sans-serif;" transform="translate(939.84 223.0455)" fill="#6E7079">150</text>
<text dominant-baseline="central" text-anchor="start" style="font-size:12px;font-family:sans-serif;" transform="translate(939.84 175.0909)" fill="#6E7079">300</text>
<text dominant-baseline="central" text-anchor="start" style="font-size:12px;font-family:sans-serif;" transform="translate(939.84 127.1364)" fill="#6E7079">450</text>
<text dominant-baseline="central" text-anchor="start" style="font-size:12px;font-family:sans-serif;" transform="translate(939.84 79.1818)" fill="#6E7079">600</text>
<text dominant-baseline="central" text-anchor="start" style="font-size:12px;font-family:sans-serif;" transform="translate(939.84 60)" fill="#6E7079">660</text>
<text dominant-baseline="central" text-anchor="middle" style="font-size:12px;font-family:sans-serif;" y="6" transform="translate(60.8903 279)" fill="#6E7079">1km</text>
<text dominant-baseline="central" text-anchor="middle" style="font-size:12px;font-family:sans-serif;" y="6" transform="translate(110.0348 279)" fill="#6E7079">10km</text>
<text dominant-baseline="central" text-anchor="middle" style="font-size:12px;font-family:sans-serif;" y="6" transform="translate(159.1793 279)" fill="#6E7079">19km</text>
<text dominant-baseline="central" text-anchor="middle" style="font-size:12px;font-family:sans-serif;" y="6" transform="translate(208.3238 279)" fill="#6E7079">28km</text>
<text dominant-baseline="central" text-anchor="middle" style="font-size:12px;font-family:sans-serif;" y="6" transform="translate(257.4683 279)" fill="#6E7079">37km</text>
<text dominant-baseline="central" text-anchor="middle" style="font-size:12px;font-family:sans-serif;" y="6" transform="translate(306.6128 279)" fill="#6E7079">46km</text>
<text dominant-baseline="central" text-anchor="middle" style="font-size:12px;font-family:sans-serif;" y="6" transform="translate(355.7573 279)" fill="#6E7079">55km</text>
<text dominant-baseline="central" text-anchor="middle" style="font-size:12px;font-family:sans-serif;" y="6" transform="translate(404.9018 279)" fill="#6E7079">64km</text>
<text dominant-baseline="central" text-anchor="middle" style="font-size:12px;font-family:sans-serif;" y="6" transform="translate(454.0463 279)" fill="#6E7079">73km</text>
<text dominant-baseline="central" text-anchor="middle" style="font-size:12px;font-family:sans-serif;" y="6" transform="translate(503.1908 279)" fill="#6E7079">82km</text>
<text dominant-baseline="central" text-anchor="middle" style="font-size:12px;font-family:sans-serif;" y="6" transform="translate(552.3353 279)" fill="#6E7079">91km</text>
<text dominant-baseline="central" text-anchor="middle" style="font-size:12px;font-family:sans-serif;" y="6" transform="translate(601.4798 279)" fill="#6E7079">100km</text>
<text dominant-baseline="central" text-anchor="middle" style="font-size:12px;font-family:sans-serif;" y="6" transform="translate(650.6243 279)" fill="#6E7079">109km</text>
<text dominant-baseline="central" text-anchor="middle" style="font-size:12px;font-family:sans-serif;" y="6" transform="translate(699.7688 279)" fill="#6E7079">118km</text>
<text dominant-baseline="central" text-anchor="middle" style="font-size:12px;font-family:sans-serif;" y="6" transform="translate(748.9133 279)" fill="#6E7079">127km</text>
<text dominant-baseline="central" text-anchor="middle" style="font-size:12px;font-family:sans-serif;" y="6" transform="translate(798.0578 279)" fill="#6E7079">136km</text>
<text dominant-baseline="central" text-anchor="middle" style="font-size:12px;font-family:sans-serif;" y="6" transform="translate(847.2023 279)" fill="#6E7079">145km</text>
<text dominant-baseline="central" text-anchor="middle" style="font-size:12px;font-family:sans-serif;" y="6" transform="translate(896.3468 279)" fill="#6E7079">154km</text>
<path d="M59 271l3.8 0l0 -209.1l-3.8 0Z" fill="rgb(227,73,2)" fill-opacity="0.3"></path>
<path d="M64.5 271l3.8 0l0 -205.6l-3.8 0Z" fill="rgb(227,73,2)" fill-opacity="0.3"></path>
<path d="M69.9 271l3.8 0l0 -193.7l-3.8 0Z" fill="rgb(227,73,2)" fill-opacity="0.3"></path>
<path d="M75.4 271l3.8 0l0 -187.7l-3.8 0Z" fill="rgb(227,73,2)" fill-opacity="0.3"></path>
<path d="M80.8 271l3.8 0l0 -182.9l-3.8 0Z" fill="rgb(227,73,2)" fill-opacity="0.3"></path>
<path d="M86.3 271l3.8 0l0 -178.4l-3.8 0Z" fill="rgb(227,73,2)" fill-opacity="0.3"></path>
<path d="M91.8 271l3.8 0l0 -171.7l-3.8 0Z" fill="rgb(227,73,2)" fill-opacity="0.3"></path>
<path d="M97.2 271l3.8 0l0 -160.2l-3.8 0Z" fill="rgb(227,73,2)" fill-opacity="0.3"></path>
<path d="M102.7 271l3.8 0l0 -143.5l-3.8 0Z" fill="rgb(227,73,2)" fill-opacity="0.3"></path>
<path d="M108.2 271l3.8 0l0 -132.4l-3.8 0Z" fill="rgb(227,73,2)" fill-opacity="0.3"></path>
<path d="M113.6 271l3.8 0l0 -126.9l-3.8 0Z" fill="rgb(227,73,2)" fill-opacity="0.3"></path>
<path d="M119.1 271l3.8 0l0 -121.8l-3.8 0Z" fill="rgb(227,73,2)" fill-opacity="0.3"></path>
<path d="M124.5 271l3.8 0l0 -119.9l-3.8 0Z" fill="rgb(227,73,2)" fill-opacity="0.3"></path>
<path d="M130 271l3.8 0l0 -109.3l-3.8 0Z" fill="rgb(227,73,2)" fill-opacity="0.3"></path>
<path d="M135.5 271l3.8 0l0 -94.6l-3.8 0Z" fill="rgb(227,73,2)" fill-opacity="0.3"></path>
<path d="M140.9 271l3.8 0l0 -92.1l-3.8 0Z" fill="rgb(227,73,2)" fill-opacity="0.3"></path>
<path d="M146.4 271l3.8 0l0 -87.6l-3.8 0Z" fill="rgb(227,73,2)" fill-opacity="0.3"></path>
<path d="M151.8 271l3.8 0l0 -78.3l-3.8 0Z" fill="rgb(227,73,2)" fill-opacity="0.3"></path>
<path d="M157.3 271l3.8 0l0 -71.6l-3.8 0Z" fill="rgb(227,73,2)" fill-opacity="0.3"></path>
<path d="M162.8 271l3.8 0l0 -63.3l-3.8 0Z" fill="rgb(227,73,2)" fill-opacity="0.3"></path>
<path d="M168.2 271l3.8 0l0 -55.6l-3.8 0Z" fill="rgb(227,73,2)" fill-opacity="0.3"></path>
<path d="M173.7 271l3.8 0l0 -52.1l-3.8 0Z" fill="rgb(227,73,2)" fill-opacity="0.3"></path>
<path d="M179.1 271l3.8 0l0 -51.2l-3.8 0Z" fill="rgb(227,73,2)" fill-opacity="0.3"></path>
<path d="M184.6 271l3.8 0l0 -49.9l-3.8 0Z" fill="rgb(227,73,2)" fill-opacity="0.3"></path>
<path d="M190.1 271l3.8 0l0 -48.9l-3.8 0Z" fill="rgb(227,73,2)" fill-opacity="0.3"></path>
<path d="M195.5 271l3.8 0l0 -48.6l-3.8 0Z" fill="rgb(227,73,2)" fill-opacity="0.3"></path>
<path d="M201 271l3.8 0l0 -48l-3.8 0Z" fill="rgb(227,73,2)" fill-opacity="0.3"></path>
<path d="M206.4 271l3.8 0l0 -47.3l-3.8 0Z" fill="rgb(227,73,2)" fill-opacity="0.3"></path>
<path d="M211.9 271l3.8 0l0 -45.7l-3.8 0Z" fill="rgb(227,73,2)" fill-opacity="0.3"></path>
<path d="M217.4 271l3.8 0l0 -45.1l-3.8 0Z" fill="rgb(227,73,2)" fill-opacity="0.3"></path>
<path d="M222.8 271l3.8 0l0 -44.4l-3.8 0Z" fill="rgb(227,73,2)" fill-opacity="0.3"></path>
<path d="M228.3 271l3.8 0l0 -43.5l-3.8 0Z" fill="rgb(227,73,2)" fill-opacity="0.3"></path>
<path d="M233.7 271l3.8 0l0 -43.5l-3.8 0Z" fill="rgb(227,73,2)" fill-opacity="0.3"></path>
<path d="M239.2 271l3.8 0l0 -43.5l-3.8 0Z" fill="rgb(227,73,2)" fill-opacity="0.3"></path>
<path d="M244.7 271l3.8 0l0 -42.5l-3.8 0Z" fill="rgb(227,73,2)" fill-opacity="0.3"></path>
<path d="M250.1 271l3.8 0l0 -41.9l-3.8 0Z" fill="rgb(227,73,2)" fill-opacity="0.3"></path>
<path d="M255.6 271l3.8 0l0 -40.9l-3.8 0Z" fill="rgb(227,73,2)" fill-opacity="0.3"></path>
<path d="M261 271l3.8 0l0 -40.9l-3.8 0Z" fill="rgb(227,73,2)" fill-opacity="0.3"></path>
<path d="M266.5 271l3.8 0l0 -39.6l-3.8 0Z" fill="rgb(227,73,2)" fill-opacity="0.3"></path>
<path d="M272 271l3.8 0l0 -38.7l-3.8 0Z" fill="rgb(227,73,2)" fill-opacity="0.3"></path>
<path d="M277.4 271l3.8 0l0 -37.7l-3.8 0Z" fill="rgb(227,73,2)" fill-opacity="0.3"></path>
<path d="M282.9 271l3.8 0l0 -37.4l-3.8 0Z" fill="rgb(227,73,2)" fill-opacity="0.3"></path>
<path d="M288.3 271l3.8 0l0 -36.8l-3.8 0Z" fill="rgb(227,73,2)" fill-opacity="0.3"></path>
<path d="M293.8 271l3.8 0l0 -36.1l-3.8 0Z" fill="rgb(227,73,2)" fill-opacity="0.3"></path>
<path d="M299.3 271l3.8 0l0 -33.6l-3.8 0Z" fill="rgb(227,73,2)" fill-opacity="0.3"></path>
<path d="M304.7 271l3.8 0l0 -32.3l-3.8 0Z" fill="rgb(227,73,2)" fill-opacity="0.3"></path>
<path d="M310.2 271l3.8 0l0 -31.3l-3.8 0Z" fill="rgb(227,73,2)" fill-opacity="0.3"></path>
<path d="M315.6 271l3.8 0l0 -31l-3.8 0Z" fill="rgb(227,73,2)" fill-opacity="0.3"></path>
<path d="M321.1 271l3.8 0l0 -30.4l-3.8 0Z" fill="rgb(227,73,2)" fill-opacity="0.3"></path>
<path d="M326.6 271l3.8 0l0 -29.7l-3.8 0Z" fill="rgb(227,73,2)" fill-opacity="0.3"></path>
<path d="M332 271l3.8 0l0 -28.5l-3.8 0Z" fill="rgb(227,73,2)" fill-opacity="0.3"></path>
<path d="M337.5 271l3.8 0l0 -28.1l-3.8 0Z" fill="rgb(227,73,2)" fill-opacity="0.3"></path>
<path d="M343 271l3.8 0l0 -27.2l-3.8 0Z" fill="rgb(227,73,2)" fill-opacity="0.3"></path>
<path d="M348.4 271l3.8 0l0 -26.2l-3.8 0Z" fill="rgb(227,73,2)" fill-opacity="0.3"></path>
<path d="M353.9 271l3.8 0l0 -24.9l-3.8 0Z" fill="rgb(227,73,2)" fill-opacity="0.3"></path>
<path d="M359.3 271l3.8 0l0 -24.9l-3.8 0Z" fill="rgb(227,73,2)" fill-opacity="0.3"></path>
<path d="M364.8 271l3.8 0l0 -24l-3.8 0Z" fill="rgb(227,73,2)" fill-opacity="0.3"></path>
<path d="M370.3 271l3.8 0l0 -23.7l-3.8 0Z" fill="rgb(227,73,2)" fill-opacity="0.3"></path>
<path d="M375.7 271l3.8 0l0 -23.7l-3.8 0Z" fill="rgb(227,73,2)" fill-opacity="0.3"></path>
<path d="M381.2 271l3.8 0l0 -23.7l-3.8 0Z" fill="rgb(227,73,2)" fill-opacity="0.3"></path>
<path d="M386.6 271l3.8 0l0 -22.7l-3.8 0Z" fill="rgb(227,73,2)" fill-opacity="0.3"></path>
<path d="M392.1 271l3.8 0l0 -21.4l-3.8 0Z" fill="rgb(227,73,2)" fill-opacity="0.3"></path>
<path d="M397.6 271l3.8 0l0 -21.4l-3.8 0Z" fill="rgb(227,73,2)" fill-opacity="0.8"></path>
<path d="M403 271l3.8 0l0 -19.5l-3.8 0Z" fill="rgb(227,73,2)" fill-opacity="0.3"></path>
<path d="M408.5 271l3.8 0l0 -18.5l-3.8 0Z" fill="rgb(227,73,2)" fill-opacity="0.3"></path>
<path d="M413.9 271l3.8 0l0 -17.9l-3.8 0Z" fill="rgb(227,73,2)" fill-opacity="0.3"></path>
<path d="M419.4 271l3.8 0l0 -17.6l-3.8 0Z" fill="rgb(227,73,2)" fill-opacity="0.3"></path>
<path d="M424.9 271l3.8 0l0 -16.6l-3.8 0Z" fill="rgb(227,73,2)" fill-opacity="0.3"></path>
<path d="M430.3 271l3.8 0l0 -14.7l-3.8 0Z" fill="rgb(227,73,2)" fill-opacity="0.3"></path>
<path d="M435.8 271l3.8 0l0 -14.4l-3.8 0Z" fill="rgb(227,73,2)" fill-opacity="0.3"></path>
<path d="M441.2 271l3.8 0l0 -14.4l-3.8 0Z" fill="rgb(227,73,2)" fill-opacity="0.3"></path>
<path d="M446.7 271l3.8 0l0 -14.1l-3.8 0Z" fill="rgb(227,73,2)" fill-opacity="0.3"></path>
<path d="M452.2 271l3.8 0l0 -13.4l-3.8 0Z" fill="rgb(227,73,2)" fill-opacity="0.3"></path>
<path d="M457.6 271l3.8 0l0 -13.4l-3.8 0Z" fill="rgb(227,73,2)" fill-opacity="0.3"></path>
<path d="M463.1 271l3.8 0l0 -13.4l-3.8 0Z" fill="rgb(227,73,2)" fill-opacity="0.3"></path>
<path d="M468.5 271l3.8 0l0 -12.5l-3.8 0Z" fill="rgb(227,73,2)" fill-opacity="0.3"></path>
<path d="M474 271l3.8 0l0 -12.5l-3.8 0Z" fill="rgb(227,73,2)" fill-opacity="0.3"></path>
<path d="M479.5 271l3.8 0l0 -12.1l-3.8 0Z" fill="rgb(227,73,2)" fill-opacity="0.3"></path>
<path d="M484.9 271l3.8 0l0 -11.5l-3.8 0Z" fill="rgb(227,73,2)" fill-opacity="0.3"></path>
<path d="M490.4 271l3.8 0l0 -11.5l-3.8 0Z" fill="rgb(227,73,2)" fill-opacity="0.3"></path>
<path d="M495.8 271l3.8 0l0 -10.6l-3.8 0Z" fill="rgb(227,73,2)" fill-opacity="0.3"></path>
<path d="M501.3 271l3.8 0l0 -9.9l-3.8 0Z" fill="rgb(227,73,2)" fill-opacity="0.3"></path>
<path d="M506.8 271l3.8 0l0 -9.6l-3.8 0Z" fill="rgb(227,73,2)" fill-opacity="0.3"></path>
<path d="M512.2 271l3.8 0l0 -9.3l-3.8 0Z" fill="rgb(227,73,2)" fill-opacity="0.3"></path>
<path d="M517.7 271l3.8 0l0 -9l-3.8 0Z" fill="rgb(227,73,2)" fill-opacity="0.3"></path>
<path d="M523.1 271l3.8 0l0 -8.3l-3.8 0Z" fill="rgb(227,73,2)" fill-opacity="0.3"></path>
<path d="M528.6 271l3.8 0l0 -8l-3.8 0Z" fill="rgb(227,73,2)" fill-opacity="0.3"></path>
<path d="M534.1 271l3.8 0l0 -8l-3.8 0Z" fill="rgb(227,73,2)" fill-opacity="0.3"></path>
<path d="M539.5 271l3.8 0l0 -8l-3.8 0Z" fill="rgb(227,73,2)" fill-opacity="0.3"></path>
<path d="M545 271l3.8 0l0 -8l-3.8 0Z" fill="rgb(227,73,2)" fill-opacity="0.3"></path>
<path d="M550.5 271l3.8 0l0 -7.7l-3.8 0Z" fill="rgb(227,73,2)" fill-opacity="0.3"></path>
<path d="M555.9 271l3.8 0l0 -7.4l-3.8 0Z" fill="rgb(227,73,2)" fill-opacity="0.3"></path>
<path d="M561.4 271l3.8 0l0 -7.4l-3.8 0Z" fill="rgb(227,73,2)" fill-opacity="0.3"></path>
<path d="M566.8 271l3.8 0l0 -6.7l-3.8 0Z" fill="rgb(227,73,2)" fill-opacity="0.3"></path>
<path d="M572.3 271l3.8 0l0 -6.4l-3.8 0Z" fill="rgb(227,73,2)" fill-opacity="0.3"></path>
<path d="M577.8 271l3.8 0l0 -6.1l-3.8 0Z" fill="rgb(227,73,2)" fill-opacity="0.3"></path>
<path d="M583.2 271l3.8 0l0 -6.1l-3.8 0Z" fill="rgb(227,73,2)" fill-opacity="0.3"></path>
<path d="M588.7 271l3.8 0l0 -6.1l-3.8 0Z" fill="rgb(227,73,2)" fill-opacity="0.3"></path>
<path d="M594.1 271l3.8 0l0 -6.1l-3.8 0Z" fill="rgb(227,73,2)" fill-opacity="0.3"></path>
<path d="M599.6 271l3.8 0l0 -6.1l-3.8 0Z" fill="rgb(227,73,2)" fill-opacity="0.3"></path>
<path d="M605.1 271l3.8 0l0 -5.4l-3.8 0Z" fill="rgb(227,73,2)" fill-opacity="0.3"></path>
<path d="M610.5 271l3.8 0l0 -4.8l-3.8 0Z" fill="rgb(227,73,2)" fill-opacity="0.3"></path>
<path d="M616 271l3.8 0l0 -4.8l-3.8 0Z" fill="rgb(227,73,2)" fill-opacity="0.3"></path>
<path d="M621.4 271l3.8 0l0 -4.5l-3.8 0Z" fill="rgb(227,73,2)" fill-opacity="0.3"></path>
<path d="M626.9 271l3.8 0l0 -4.5l-3.8 0Z" fill="rgb(227,73,2)" fill-opacity="0.3"></path>
<path d="M632.4 271l3.8 0l0 -4.2l-3.8 0Z" fill="rgb(227,73,2)" fill-opacity="0.3"></path>
<path d="M637.8 271l3.8 0l0 -4.2l-3.8 0Z" fill="rgb(227,73,2)" fill-opacity="0.3"></path>
<path d="M643.3 271l3.8 0l0 -3.2l-3.8 0Z" fill="rgb(227,73,2)" fill-opacity="0.3"></path>
<path d="M648.7 271l3.8 0l0 -2.9l-3.8 0Z" fill="rgb(227,73,2)" fill-opacity="0.3"></path>
<path d="M654.2 271l3.8 0l0 -2.6l-3.8 0Z" fill="rgb(227,73,2)" fill-opacity="0.3"></path>
<path d="M659.7 271l3.8 0l0 -2.2l-3.8 0Z" fill="rgb(227,73,2)" fill-opacity="0.3"></path>
<path d="M665.1 271l3.8 0l0 -1.9l-3.8 0Z" fill="rgb(227,73,2)" fill-opacity="0.3"></path>
<path d="M670.6 271l3.8 0l0 -1.6l-3.8 0Z" fill="rgb(227,73,2)" fill-opacity="0.3"></path>
<path d="M676 271l3.8 0l0 -1.6l-3.8 0Z" fill="rgb(227,73,2)" fill-opacity="0.3"></path>
<path d="M681.5 271l3.8 0l0 -1.6l-3.8 0Z" fill="rgb(227,73,2)" fill-opacity="0.3"></path>
<path d="M687 271l3.8 0l0 -1.6l-3.8 0Z" fill="rgb(227,73,2)" fill-opacity="0.3"></path>
<path d="M692.4 271l3.8 0l0 -1.6l-3.8 0Z" fill="rgb(227,73,2)" fill-opacity="0.3"></path>
<path d="M697.9 271l3.8 0l0 -1.3l-3.8 0Z" fill="rgb(227,73,2)" fill-opacity="0.3"></path>
<path d="M703.3 271l3.8 0l0 -1l-3.8 0Z" fill="rgb(227,73,2)" fill-opacity="0.3"></path>
<path d="M708.8 271l3.8 0l0 -1l-3.8 0Z" fill="rgb(227,73,2)" fill-opacity="0.3"></path>
<path d="M714.3 271l3.8 0l0 -0.6l-3.8 0Z" fill="rgb(227,73,2)" fill-opacity="0.3"></path>
<path d="M719.7 271l3.8 0l0 -0.6l-3.8 0Z" fill="rgb(227,73,2)" fill-opacity="0.3"></path>
<path d="M725.2 271l3.8 0l0 -0.6l-3.8 0Z" fill="rgb(227,73,2)" fill-opacity="0.3"></path>
<path d="M730.6 271l3.8 0l0 -0.6l-3.8 0Z" fill="rgb(227,73,2)" fill-opacity="0.3"></path>
<path d="M736.1 271l3.8 0l0 -0.6l-3.8 0Z" fill="rgb(227,73,2)" fill-opacity="0.3"></path>
<path d="M741.6 271l3.8 0l0 -0.6l-3.8 0Z" fill="rgb(227,73,2)" fill-opacity="0.3"></path>
<path d="M747 271l3.8 0l0 -0.6l-3.8 0Z" fill="rgb(227,73,2)" fill-opacity="0.3"></path>
<path d="M752.5 271l3.8 0l0 -0.6l-3.8 0Z" fill="rgb(227,73,2)" fill-opacity="0.3"></path>
<path d="M758 271l3.8 0l0 -0.6l-3.8 0Z" fill="rgb(227,73,2)" fill-opacity="0.3"></path>
<path d="M763.4 271l3.8 0l0 -0.6l-3.8 0Z" fill="rgb(227,73,2)" fill-opacity="0.3"></path>
<path d="M768.9 271l3.8 0l0 -0.6l-3.8 0Z" fill="rgb(227,73,2)" fill-opacity="0.3"></path>
<path d="M774.3 271l3.8 0l0 -0.6l-3.8 0Z" fill="rgb(227,73,2)" fill-opacity="0.3"></path>
<path d="M779.8 271l3.8 0l0 -0.6l-3.8 0Z" fill="rgb(227,73,2)" fill-opacity="0.3"></path>
<path d="M785.3 271l3.8 0l0 -0.6l-3.8 0Z" fill="rgb(227,73,2)" fill-opacity="0.3"></path>
<path d="M790.7 271l3.8 0l0 -0.6l-3.8 0Z" fill="rgb(227,73,2)" fill-opacity="0.3"></path>
<path d="M796.2 271l3.8 0l0 -0.6l-3.8 0Z" fill="rgb(227,73,2)" fill-opacity="0.3"></path>
<path d="M801.6 271l3.8 0l0 -0.6l-3.8 0Z" fill="rgb(227,73,2)" fill-opacity="0.3"></path>
<path d="M807.1 271l3.8 0l0 -0.6l-3.8 0Z" fill="rgb(227,73,2)" fill-opacity="0.3"></path>
<path d="M812.6 271l3.8 0l0 -0.6l-3.8 0Z" fill="rgb(227,73,2)" fill-opacity="0.3"></path>
<path d="M818 271l3.8 0l0 -0.6l-3.8 0Z" fill="rgb(227,73,2)" fill-opacity="0.3"></path>
<path d="M823.5 271l3.8 0l0 -0.6l-3.8 0Z" fill="rgb(227,73,2)" fill-opacity="0.3"></path>
<path d="M828.9 271l3.8 0l0 -0.6l-3.8 0Z" fill="rgb(227,73,2)" fill-opacity="0.3"></path>
<path d="M834.4 271l3.8 0l0 -0.6l-3.8 0Z" fill="rgb(227,73,2)" fill-opacity="0.3"></path>
<path d="M839.9 271l3.8 0l0 -0.6l-3.8 0Z" fill="rgb(227,73,2)" fill-opacity="0.3"></path>
<path d="M845.3 271l3.8 0l0 -0.3l-3.8 0Z" fill="rgb(227,73,2)" fill-opacity="0.3"></path>
<path d="M850.8 271l3.8 0l0 -0.3l-3.8 0Z" fill="rgb(227,73,2)" fill-opacity="0.3"></path>
<path d="M856.2 271l3.8 0l0 -0.3l-3.8 0Z" fill="rgb(227,73,2)" fill-opacity="0.3"></path>
<path d="M861.7 271l3.8 0l0 -0.3l-3.8 0Z" fill="rgb(227,73,2)" fill-opacity="0.3"></path>
<path d="M867.2 271l3.8 0l0 -0.3l-3.8 0Z" fill="rgb(227,73,2)" fill-opacity="0.3"></path>
<path d="M872.6 271l3.8 0l0 -0.3l-3.8 0Z" fill="rgb(227,73,2)" fill-opacity="0.3"></path>
<path d="M878.1 271l3.8 0l0 -0.3l-3.8 0Z" fill="rgb(227,73,2)" fill-opacity="0.3"></path>
<path d="M883.5 271l3.8 0l0 -0.3l-3.8 0Z" fill="rgb(227,73,2)" fill-opacity="0.3"></path>
<path d="M889 271l3.8 0l0 -0.3l-3.8 0Z" fill="rgb(227,73,2)" fill-opacity="0.3"></path>
<path d="M894.5 271l3.8 0l0 -0.3l-3.8 0Z" fill="rgb(227,73,2)" fill-opacity="0.3"></path>
<path d="M899.9 271l3.8 0l0 -0.3l-3.8 0Z" fill="rgb(227,73,2)" fill-opacity="0.3"></path>
<path d="M905.4 271l3.8 0l0 -0.3l-3.8 0Z" fill="rgb(227,73,2)" fill-opacity="0.3"></path>
<path d="M910.8 271l3.8 0l0 -0.3l-3.8 0Z" fill="rgb(227,73,2)" fill-opacity="0.3"></path>
<path d="M916.3 271l3.8 0l0 -0.3l-3.8 0Z" fill="rgb(227,73,2)" fill-opacity="0.3"></path>
<path d="M921.8 271l3.8 0l0 -0.3l-3.8 0Z" fill="rgb(227,73,2)" fill-opacity="0.3"></path>
<path d="M927.2 271l3.8 0l0 -0.3l-3.8 0Z" fill="rgb(227,73,2)" fill-opacity="0.3"></path>
<path d="M-5 -5l226.9 0l0 24l-226.9 0Z" transform="translate(391.54 5)" fill="rgb(0,0,0)" fill-opacity="0" stroke="#ccc" stroke-width="0"></path>
<path d="M3.5 0L21.5 0A3.5 3.5 0 0 1 25 3.5L25 10.5A3.5 3.5 0 0 1 21.5 14L3.5 14A3.5 3.5 0 0 1 0 10.5L0 3.5A3.5 3.5 0 0 1 3.5 0" transform="translate(391.54 5)" fill="rgb(227,73,2)" fill-opacity="0.3"></path>
<text dominant-baseline="central" text-anchor="start" style="font-size:12px;font-family:sans-serif;" xml:space="preserve" x="30" y="7" transform="translate(391.54 5)" fill="#333">Times completed</text>
<path d="M0 7L25 7" transform="translate(524.1 5)" fill="#000" stroke="#E34902" stroke-width="2" stroke-linecap="butt" stroke-miterlimit="10"></path>
<path d="M18.1 7A5.6 5.6 0 1 1 18.1 6.4A5.6 5.6 0 0 1 18.1 7" transform="translate(524.1 5)" fill="#fff" stroke="#E34902" stroke-width="2" stroke-linecap="butt" stroke-miterlimit="10"></path>
<text dominant-baseline="central" text-anchor="start" style="font-size:12px;font-family:sans-serif;" x="30" y="7" transform="translate(524.1 5)" fill="#333">Eddington</text>
<path d="M-0.54 -0.89A0.6 0.6 0 1 1 0.54 -0.89C0.39 -0.56 0 -0.42 0 0C0 -0.42 -0.39 -0.56 -0.54 -0.89Z" transform="matrix(25,0,0,25,399.4413,244.9)" fill="rgb(227,73,2)" fill-opacity="0.8"></path>
<text dominant-baseline="central" text-anchor="middle" style="font-size:12px;font-family:sans-serif;" transform="translate(399.4413 218.7571)" fill="#eee" stroke="rgb(227,73,2)" stroke-width="2" paint-order="stroke" stroke-opacity="0.8" stroke-miterlimit="2">63</text>
<g clip-path="url(#zr0-c0)">
<path d="M60.9 270.7L66.4 270.4L71.8 270L77.3 269.7L82.7 269.4L88.2 269.1L93.7 268.8L99.1 268.4L104.6 268.1L110 267.8L115.5 267.5L121 267.2L126.4 266.8L131.9 266.5L137.3 266.2L142.8 265.9L148.3 265.6L153.7 265.2L159.2 264.9L164.6 264.6L170.1 264.3L175.6 264L181 263.6L186.5 263.3L191.9 263L197.4 262.7L202.9 262.4L208.3 262L213.8 261.7L219.2 261.4L224.7 261.1L230.2 260.8L235.6 260.5L241.1 260.1L246.5 259.8L252 259.5L257.5 259.2L262.9 258.9L268.4 258.5L273.8 258.2L279.3 257.9L284.8 257.6L290.2 257.3L295.7 256.9L301.2 256.6L306.6 256.3L312.1 256L317.5 255.7L323 255.3L328.5 255L333.9 254.7L339.4 254.4L344.8 254.1L350.3 253.7L355.8 253.4L361.2 253.1L366.7 252.8L372.1 252.5L377.6 252.1L383.1 251.8L388.5 251.5L394 251.2L399.4 250.9L404.9 250.5L410.4 250.2L415.8 249.9L421.3 249.6L426.7 249.3L432.2 248.9L437.7 248.6L443.1 248.3L448.6 248L454 247.7L459.5 247.3L465 247L470.4 246.7L475.9 246.4L481.3 246.1L486.8 245.7L492.3 245.4L497.7 245.1L503.2 244.8L508.7 244.5L514.1 244.1L519.6 243.8L525 243.5L530.5 243.2L536 242.9L541.4 242.5L546.9 242.2L552.3 241.9L557.8 241.6L563.3 241.3L568.7 240.9L574.2 240.6L579.6 240.3L585.1 240L590.6 239.7L596 239.4L601.5 239L606.9 238.7L612.4 238.4L617.9 238.1L623.3 237.8L628.8 237.4L634.2 237.1L639.7 236.8L645.2 236.5L650.6 236.2L656.1 235.8L661.5 235.5L667 235.2L672.5 234.9L677.9 234.6L683.4 234.2L688.8 233.9L694.3 233.6L699.8 233.3L705.2 233L710.7 232.6L716.2 232.3L721.6 232L727.1 231.7L732.5 231.4L738 231L743.5 230.7L748.9 230.4L754.4 230.1L759.8 229.8L765.3 229.4L770.8 229.1L776.2 228.8L781.7 228.5L787.1 228.2L792.6 227.8L798.1 227.5L803.5 227.2L809 226.9L814.4 226.6L819.9 226.2L825.4 225.9L830.8 225.6L836.3 225.3L841.7 225L847.2 224.6L852.7 224.3L858.1 224L863.6 223.7L869 223.4L874.5 223L880 222.7L885.4 222.4L890.9 222.1L896.3 221.8L901.8 221.4L907.3 221.1L912.7 220.8L918.2 220.5L923.6 220.2L929.1 219.8" fill="none" stroke="#E34902" stroke-width="2" stroke-linejoin="bevel"></path>
</g>
<defs >
<clipPath id="zr0-c0">
<path d="M57 59l876 0l0 213l-876 0Z" fill="#000"></path>
</clipPath>
</defs>
</svg>