<svg width="1000" height="300" xmlns="http://www.w3.org/2000/svg" xmlns:xlink="http://www.w3.org/1999/xlink" version="1.1" baseProfile="full" viewBox="0 0 1000 300">
<rect width="1000" height="300" x="0" y="0" id="0" fill="#ffffff"></rect>
<path d="M58.2 271.5L931.8 271.5" fill="none" stroke="#E0E6F1"></path>
<path d="M58.2 221.5L931.8 221.5" fill="none" stroke="#E0E6F1"></path>
<path d="M58.2 170.5L931.8 170.5" fill="none" stroke="#E0E6F1"></path>
<path d="M58.2 120.5L931.8 120.5" fill="none" stroke="#E0E6F1"></path>
<path d="M58.2 70.5L931.8 70.5" fill="none" stroke="#E0E6F1"></path>
<path d="M58.2 60.5L931.8 60.5" fill="none" stroke="#E0E6F1"></path>
<path d="M58.2 271.5L931.8 271.5" fill="none" stroke="#6E7079" stroke-linecap="round"></path>
<path d="M61.5 271L61.5 276" fill="none" stroke="#6E7079"></path>
<path d="M110.5 271L110.5 276" fill="none" stroke="#6E7079"></path>
<path d="M159.5 271L159.5 276" fill="none" stroke="#6E7079"></path>
<path d="M208.5 271L208.5 276" fill="none" stroke="#6E7079"></path>
<path d="M257.5 271L257.5 276" fill="none" stroke="#6E7079"></path>
<path d="M306.5 271L306.5 276" fill="none" stroke="#6E7079"></path>
<path d="M356.5 271L356.5 276" fill="none" stroke="#6E7079"></path>
<path d="M405.5 271L405.5 276" fill="none" stroke="#6E7079"></path>
<path d="M454.5 271L454.5 276" fill="none" stroke="#6E7079"></path>
<path d="M503.5 271L503.5 276" fill="none" stroke="#6E7079"></path>
<path d="M552.5 271L552.5 276" fill="none" stroke="#6E7079"></path>
<path d="M601.5 271L601.5 276" fill="none" stroke="#6E7079"></path>
<path d="M650.5 271L650.5 276" fill="none" stroke="#6E7079"></path>
<path d="M700.5 271L700.5 276" fill="none" stroke="#6E7079"></path>
<path d="M749.5 271L749.5 276" fill="none" stroke="#6E7079"></path>
<path d="M798.5 271L798.5 276" fill="none" stroke="#6E7079"></path>
<path d="M847.5 271L847.5 276" fill="none" stroke="#6E7079"></path>
<path d="M896.5 271L896.5 276" fill="none" stroke="#6E7079"></path>
<text dominant-baseline="central" text-anchor="end" style="font-size:12px;font-family:sans-serif;" transform="translate(50.16 271)" fill="#6E7079">0</text>
<text dominant-baseline="central" text-anchor="end" style="font-size:12px;font-family:sans-serif;" transform="translate(50.16 220.7619)" fill="#6E7079">150</text>
<text dominant-baseline="central" text-anchor="end" style="font-size:12px;font-family:sans-serif;" transform="translate(50.16 170.5238)" fill="#6E7079">300</text>
<text dominant-baseline="central" text-anchor="end" style="font-size:12px;font-family:sans-serif;" transform="translate(50.16 120.2857)" fill="#6E7079">450</text>
<text dominant-baseline="central" text-anchor="end" style="font-size:12px;font-family:sans-serif;" transform="translate(50.16 70.0476)" fill="#6E7079">600</text>
<text dominant-baseline="central" text-anchor="start" style="font-size:12px;font-family:sans-serif;" transform="translate(939.84 271)" fill="#6E7079">0</text>
<text dominant-baseline="central" text-anchor="start" style="font-size:12px;font-family:sans-serif;" transform="translate(939.84 220.7619)" fill="#6E7079">150</text>
<text dominant-baseline="central" text-anchor="start" style="font-size:12px;font-family:sans-serif;" transform="translate(939.84 170.5238)" fill="#6E7079">300</text>
<text dominant-baseline="central" text-anchor="start" style="font-size:12px;font-family:sans-serif;" transform="translate(939.84 120.2857)" fill="#6E7079">450</text>
<text dominant-baseline="central" text-anchor="start" style="font-size:12px;font-family:sans-serif;" transform="translate(939.84 70.0476)" fill="#6E7079">600</text>
<text dominant-baseline="central" text-anchor="middle" style="font-size:12px;font-family:sans-serif;" y="6" transform="translate(60.8903 279)" fill="#6E7079">1km</text>
<text dominant-baseline="central" text-anchor="middle" style="font-size:12px;font-family:sans-serif;" y="6" transform="translate(110.0348 279)" fill="#6E7079">10km</text>
<text dominant-baseline="central" text-anchor="middle" style="font-size:12px;font-family:sans-serif;" y="6" transform="translate(159.1793 279)" fill="#6E7079">19km</text>
<text dominant-baseline="central" text-anchor="middle" style="font-size:12px;font-family:sans-serif;" y="6" transform="translate(208.3238 279)" fill="#6E7079">28km</text>
<text dominant-baseline="central" text-anchor="middle" style="font-size:12px;font-family:sans-serif;" y="6" transform="translate(257.4683 279)" fill="#6E7079">37km</text>
<text dominant-baseline="central" text-anchor="middle" style="font-size:12px;font-family:sans-serif;" y="6" transform="translate(306.6128 279)" fill="#6E7079">46km</text>
<text dominant-baseline="central" text-anchor="middle" style="font-size:12px;font-family:sans-serif;" y="6" transform="translate(355.7573 279)" fill="#6E7079">55km</text>
<text dominant-baseline="central" text-anchor="middle" style="font-size:12px;font-family:sans-serif;" y="6" transform="translate(404.9018 279)" fill="#6E7079">64km</text>
<text dominant-baseline="central" text-anchor="middle" style="font-size:12px;font-family:sans-serif;" y="6" transform="translate(454.0463 279)" fill="#6E7079">73km</text>
<text dominant-baseline="central" text-anchor="middle" style="font-size:12px;font-family:sans-serif;" y="6" transform="translate(503.1908 279)" fill="#6E7079">82km</text>
<text dominant-baseline="central" text-anchor="middle" style="font-size:12px;font-family:sans-serif;" y="6" transform="translate(552.3353 279)" fill="#6E7079">91km</text>
<text dominant-baseline="central" text-anchor="middle" style="font-size:12px;font-family:sans-serif;" y="6" transform="translate(601.4798 279)" fill="#6E7079">100km</text>
<text dominant-baseline="central" text-anchor="middle" style="font-size:12px;font-family:sans-serif;" y="6" transform="translate(650.6243 279)" fill="#6E7079">109km</text>
<text dominant-baseline="central" text-anchor="middle" style="font-size:12px;font-family:sans-serif;" y="6" transform="translate(699.7688 279)" fill="#6E7079">118km</text>
<text dominant-baseline="central" text-anchor="middle" style="font-size:12px;font-family:sans-serif;" y="6" transform="translate(748.9133 279)" fill="#6E7079">127km</text>
<text dominant-baseline="central" text-anchor="middle" style="font-size:12px;font-family:sans-serif;" y="6" transform="translate(798.0578 279)" fill="#6E7079">136km</text>
<text dominant-baseline="central" text-anchor="middle" style="font-size:12px;font-family:sans-serif;" y="6" transform="translate(847.2023 279)" fill="#6E7079">145km</text>
<text dominant-baseline="central" text-anchor="middle" style="font-size:12px;font-family:sans-serif;" y="6" transform="translate(896.3468 279)" fill="#6E7079">154km</text>
<path d="M59 271l3.8 0l0 -207.3l-3.8 0Z" fill="rgb(227,73,2)" fill-opacity="0.3"></path>
<path d="M64.5 271l3.8 0l0 -207l-3.8 0Z" fill="rgb(227,73,2)" fill-opacity="0.3"></path>
<path d="M69.9 271l3.8 0l0 -196.3l-3.8 0Z" fill="rgb(227,73,2)" fill-opacity="0.3"></path>
<path d="M75.4 271l3.8 0l0 -187.2l-3.8 0Z" fill="rgb(227,73,2)" fill-opacity="0.3"></path>
<path d="M80.8 271l3.8 0l0 -182.9l-3.8 0Z" fill="rgb(227,73,2)" fill-opacity="0.3"></path>
<path d="M86.3 271l3.8 0l0 -177.5l-3.8 0Z" fill="rgb(227,73,2)" fill-opacity="0.3"></path>
<path d="M91.8 271l3.8 0l0 -173.8l-3.8 0Z" fill="rgb(227,73,2)" fill-opacity="0.3"></path>
<path d="M97.2 271l3.8 0l0 -165.5l-3.8 0Z" fill="rgb(227,73,2)" fill-opacity="0.3"></path>
<path d="M102.7 271l3.8 0l0 -148.4l-3.8 0Z" fill="rgb(227,73,2)" fill-opacity="0.3"></path>
<path d="M108.2 271l3.8 0l0 -134.3l-3.8 0Z" fill="rgb(227,73,2)" fill-opacity="0.3"></path>
<path d="M113.6 271l3.8 0l0 -127.6l-3.8 0Z" fill="rgb(227,73,2)" fill-opacity="0.3"></path>
<path d="M119.1 271l3.8 0l0 -121.9l-3.8 0Z" fill="rgb(227,73,2)" fill-opacity="0.3"></path>
<path d="M124.5 271l3.8 0l0 -118.2l-3.8 0Z" fill="rgb(227,73,2)" fill-opacity="0.3"></path>
<path d="M130 271l3.8 0l0 -116.9l-3.8 0Z" fill="rgb(227,73,2)" fill-opacity="0.3"></path>
<path d="M135.5 271l3.8 0l0 -92.8l-3.8 0Z" fill="rgb(227,73,2)" fill-opacity="0.3"></path>
<path d="M140.9 271l3.8 0l0 -89.4l-3.8 0Z" fill="rgb(227,73,2)" fill-opacity="0.3"></path>
<path d="M146.4 271l3.8 0l0 -85.7l-3.8 0Z" fill="rgb(227,73,2)" fill-opacity="0.3"></path>
<path d="M151.8 271l3.8 0l0 -82.7l-3.8 0Z" fill="rgb(227,73,2)" fill-opacity="0.3"></path>
<path d="M157.3 271l3.8 0l0 -72.3l-3.8 0Z" fill="rgb(227,73,2)" fill-opacity="0.3"></path>
<path d="M162.8 271l3.8 0l0 -66l-3.8 0Z" fill="rgb(227,73,2)" fill-opacity="0.3"></path>
<path d="M168.2 271l3.8 0l0 -54.6l-3.8 0Z" fill="rgb(227,73,2)" fill-opacity="0.3"></path>
<path d="M173.7 271l3.8 0l0 -50.2l-3.8 0Z" fill="rgb(227,73,2)" fill-opacity="0.3"></path>
<path d="M179.1 271l3.8 0l0 -49.2l-3.8 0Z" fill="rgb(227,73,2)" fill-opacity="0.3"></path>
<path d="M184.6 271l3.8 0l0 -48.6l-3.8 0Z" fill="rgb(227,73,2)" fill-opacity="0.3"></path>
<path d="M190.1 271l3.8 0l0 -48.2l-3.8 0Z" fill="rgb(227,73,2)" fill-opacity="0.3"></path>
<path d="M195.5 271l3.8 0l0 -47.6l-3.8 0Z" fill="rgb(227,73,2)" fill-opacity="0.3"></path>
<path d="M201 271l3.8 0l0 -47.2l-3.8 0Z" fill="rgb(227,73,2)" fill-opacity="0.3"></path>
<path d="M206.4 271l3.8 0l0 -46.2l-3.8 0Z" fill="rgb(227,73,2)" fill-opacity="0.3"></path>
<path d="M211.9 271l3.8 0l0 -44.9l-3.8 0Z" fill="rgb(227,73,2)" fill-opacity="0.3"></path>
<path d="M217.4 271l3.8 0l0 -44.5l-3.8 0Z" fill="rgb(227,73,2)" fill-opacity="0.3"></path>
<path d="M222.8 271l3.8 0l0 -43.9l-3.8 0Z" fill="rgb(227,73,2)" fill-opacity="0.3"></path>
<path d="M228.3 271l3.8 0l0 -42.5l-3.8 0Z" fill="rgb(227,73,2)" fill-opacity="0.3"></path>
<path d="M233.7 271l3.8 0l0 -42.5l-3.8 0Z" fill="rgb(227,73,2)" fill-opacity="0.3"></path>
<path d="M239.2 271l3.8 0l0 -42.5l-3.8 0Z" fill="rgb(227,73,2)" fill-opacity="0.3"></path>
<path d="M244.7 271l3.8 0l0 -41.5l-3.8 0Z" fill="rgb(227,73,2)" fill-opacity="0.3"></path>
<path d="M250.1 271l3.8 0l0 -41.5l-3.8 0Z" fill="rgb(227,73,2)" fill-opacity="0.3"></path>
<path d="M255.6 271l3.8 0l0 -40.5l-3.8 0Z" fill="rgb(227,73,2)" fill-opacity="0.3"></path>
<path d="M261 271l3.8 0l0 -39.9l-3.8 0Z" fill="rgb(227,73,2)" fill-opacity="0.3"></path>
<path d="M266.5 271l3.8 0l0 -39.9l-3.8 0Z" fill="rgb(227,73,2)" fill-opacity="0.3"></path>
<path d="M272 271l3.8 0l0 -38.9l-3.8 0Z" fill="rgb(227,73,2)" fill-opacity="0.3"></path>
<path d="M277.4 271l3.8 0l0 -38.2l-3.8 0Z" fill="rgb(227,73,2)" fill-opacity="0.3"></path>
<path d="M282.9 271l3.8 0l0 -37.8l-3.8 0Z" fill="rgb(227,73,2)" fill-opacity="0.3"></path>
<path d="M288.3 271l3.8 0l0 -37.5l-3.8 0Z" fill="rgb(227,73,2)" fill-opacity="0.3"></path>
<path d="M293.8 271l3.8 0l0 -37.2l-3.8 0Z" fill="rgb(227,73,2)" fill-opacity="0.3"></path>
<path d="M299.3 271l3.8 0l0 -35.2l-3.8 0Z" fill="rgb(227,73,2)" fill-opacity="0.3"></path>
<path d="M304.7 271l3.8 0l0 -33.2l-3.8 0Z" fill="rgb(227,73,2)" fill-opacity="0.3"></path>
<path d="M310.2 271l3.8 0l0 -32.8l-3.8 0Z" fill="rgb(227,73,2)" fill-opacity="0.3"></path>
<path d="M315.6 271l3.8 0l0 -31.5l-3.8 0Z" fill="rgb(227,73,2)" fill-opacity="0.3"></path>
<path d="M321.1 271l3.8 0l0 -31.1l-3.8 0Z" fill="rgb(227,73,2)" fill-opacity="0.3"></path>
<path d="M326.6 271l3.8 0l0 -30.5l-3.8 0Z" fill="rgb(227,73,2)" fill-opacity="0.3"></path>
<path d="M332 271l3.8 0l0 -29.5l-3.8 0Z" fill="rgb(227,73,2)" fill-opacity="0.3"></path>
<path d="M337.5 271l3.8 0l0 -28.8l-3.8 0Z" fill="rgb(227,73,2)" fill-opacity="0.3"></path>
<path d="M343 271l3.8 0l0 -28.1l-3.8 0Z" fill="rgb(227,73,2)" fill-opacity="0.3"></path>
<path d="M348.4 271l3.8 0l0 -27.1l-3.8 0Z" fill="rgb(227,73,2)" fill-opacity="0.3"></path>
<path d="M353.9 271l3.8 0l0 -25.8l-3.8 0Z" fill="rgb(227,73,2)" fill-opacity="0.3"></path>
<path d="M359.3 271l3.8 0l0 -25.5l-3.8 0Z" fill="rgb(227,73,2)" fill-opacity="0.3"></path>
<path d="M364.8 271l3.8 0l0 -25.1l-3.8 0Z" fill="rgb(227,73,2)" fill-opacity="0.3"></path>
<path d="M370.3 271l3.8 0l0 -24.4l-3.8 0Z" fill="rgb(227,73,2)" fill-opacity="0.3"></path>
<path d="M375.7 271l3.8 0l0 -24.4l-3.8 0Z" fill="rgb(227,73,2)" fill-opacity="0.3"></path>
<path d="M381.2 271l3.8 0l0 -24.4l-3.8 0Z" fill="rgb(227,73,2)" fill-opacity="0.3"></path>
<path d="M386.6 271l3.8 0l0 -23.8l-3.8 0Z" fill="rgb(227,73,2)" fill-opacity="0.3"></path>
<path d="M392.1 271l3.8 0l0 -23.4l-3.8 0Z" fill="rgb(227,73,2)" fill-opacity="0.3"></path>
<path d="M397.6 271l3.8 0l0 -22.4l-3.8 0Z" fill="rgb(227,73,2)" fill-opacity="0.3"></path>
<path d="M403 271l3.8 0l0 -22.1l-3.8 0Z" fill="rgb(227,73,2)" fill-opacity="0.8"></path>
<path d="M408.5 271l3.8 0l0 -20.1l-3.8 0Z" fill="rgb(227,73,2)" fill-opacity="0.3"></path>
<path d="M413.9 271l3.8 0l0 -18.8l-3.8 0Z" fill="rgb(227,73,2)" fill-opacity="0.3"></path>
<path d="M419.4 271l3.8 0l0 -18.8l-3.8 0Z" fill="rgb(227,73,2)" fill-opacity="0.3"></path>
<path d="M424.9 271l3.8 0l0 -17.8l-3.8 0Z" fill="rgb(227,73,2)" fill-opacity="0.3"></path>
<path d="M430.3 271l3.8 0l0 -16.7l-3.8 0Z" fill="rgb(227,73,2)" fill-opacity="0.3"></path>
<path d="M435.8 271l3.8 0l0 -15.1l-3.8 0Z" fill="rgb(227,73,2)" fill-opacity="0.3"></path>
<path d="M441.2 271l3.8 0l0 -15.1l-3.8 0Z" fill="rgb(227,73,2)" fill-opacity="0.3"></path>
<path d="M446.7 271l3.8 0l0 -15.1l-3.8 0Z" fill="rgb(227,73,2)" fill-opacity="0.3"></path>
<path d="M452.2 271l3.8 0l0 -14.4l-3.8 0Z" fill="rgb(227,73,2)" fill-opacity="0.3"></path>
<path d="M457.6 271l3.8 0l0 -14.1l-3.8 0Z" fill="rgb(227,73,2)" fill-opacity="0.3"></path>
<path d="M463.1 271l3.8 0l0 -14.1l-3.8 0Z" fill="rgb(227,73,2)" fill-opacity="0.3"></path>
<path d="M468.5 271l3.8 0l0 -13.1l-3.8 0Z" fill="rgb(227,73,2)" fill-opacity="0.3"></path>
<path d="M474 271l3.8 0l0 -13.1l-3.8 0Z" fill="rgb(227,73,2)" fill-opacity="0.3"></path>
<path d="M479.5 271l3.8 0l0 -12.7l-3.8 0Z" fill="rgb(227,73,2)" fill-opacity="0.3"></path>
<path d="M484.9 271l3.8 0l0 -12.1l-3.8 0Z" fill="rgb(227,73,2)" fill-opacity="0.3"></path>
<path d="M490.4 271l3.8 0l0 -12.1l-3.8 0Z" fill="rgb(227,73,2)" fill-opacity="0.3"></path>
<path d="M495.8 271l3.8 0l0 -11.7l-3.8 0Z" fill="rgb(227,73,2)" fill-opacity="0.3"></path>
<path d="M501.3 271l3.8 0l0 -10.4l-3.8 0Z" fill="rgb(227,73,2)" fill-opacity="0.3"></path>
<path d="M506.8 271l3.8 0l0 -10l-3.8 0Z" fill="rgb(227,73,2)" fill-opacity="0.3"></path>
<path d="M512.2 271l3.8 0l0 -10l-3.8 0Z" fill="rgb(227,73,2)" fill-opacity="0.3"></path>
<path d="M517.7 271l3.8 0l0 -9.4l-3.8 0Z" fill="rgb(227,73,2)" fill-opacity="0.3"></path>
<path d="M523.1 271l3.8 0l0 -9l-3.8 0Z" fill="rgb(227,73,2)" fill-opacity="0.3"></path>
<path d="M528.6 271l3.8 0l0 -8.4l-3.8 0Z" fill="rgb(227,73,2)" fill-opacity="0.3"></path>
<path d="M534.1 271l3.8 0l0 -8.4l-3.8 0Z" fill="rgb(227,73,2)" fill-opacity="0.3"></path>
<path d="M539.5 271l3.8 0l0 -8.4l-3.8 0Z" fill="rgb(227,73,2)" fill-opacity="0.3"></path>
<path d="M545 271l3.8 0l0 -8.4l-3.8 0Z" fill="rgb(227,73,2)" fill-opacity="0.3"></path>
<path d="M550.5 271l3.8 0l0 -8l-3.8 0Z" fill="rgb(227,73,2)" fill-opacity="0.3"></path>
<path d="M555.9 271l3.8 0l0 -7.7l-3.8 0Z" fill="rgb(227,73,2)" fill-opacity="0.3"></path>
<path d="M561.4 271l3.8 0l0 -7.7l-3.8 0Z" fill="rgb(227,73,2)" fill-opacity="0.3"></path>
<path d="M566.8 271l3.8 0l0 -7.4l-3.8 0Z" fill="rgb(227,73,2)" fill-opacity="0.3"></path>
<path d="M572.3 271l3.8 0l0 -7l-3.8 0Z" fill="rgb(227,73,2)" fill-opacity="0.3"></path>
<path d="M577.8 271l3.8 0l0 -6.7l-3.8 0Z" fill="rgb(227,73,2)" fill-opacity="0.3"></path>
<path d="M583.2 271l3.8 0l0 -6.4l-3.8 0Z" fill="rgb(227,73,2)" fill-opacity="0.3"></path>
<path d="M588.7 271l3.8 0l0 -6.4l-3.8 0Z" fill="rgb(227,73,2)" fill-opacity="0.3"></path>
<path d="M594.1 271l3.8 0l0 -6.4l-3.8 0Z" fill="rgb(227,73,2)" fill-opacity="0.3"></path>
<path d="M599.6 271l3.8 0l0 -6.4l-3.8 0Z" fill="rgb(227,73,2)" fill-opacity="0.3"></path>
<path d="M605.1 271l3.8 0l0 -6.4l-3.8 0Z" fill="rgb(227,73,2)" fill-opacity="0.3"></path>
<path d="M610.5 271l3.8 0l0 -5.4l-3.8 0Z" fill="rgb(227,73,2)" fill-opacity="0.3"></path>
<path d="M616 271l3.8 0l0 -5l-3.8 0Z" fill="rgb(227,73,2)" fill-opacity="0.3"></path>
<path d="M621.4 271l3.8 0l0 -4.7l-3.8 0Z" fill="rgb(227,73,2)" fill-opacity="0.3"></path>
<path d="M626.9 271l3.8 0l0 -4.7l-3.8 0Z" fill="rgb(227,73,2)" fill-opacity="0.3"></path>
<path d="M632.4 271l3.8 0l0 -4.7l-3.8 0Z" fill="rgb(227,73,2)" fill-opacity="0.3"></path>
<path d="M637.8 271l3.8 0l0 -4.4l-3.8 0Z" fill="rgb(227,73,2)" fill-opacity="0.3"></path>
<path d="M643.3 271l3.8 0l0 -4l-3.8 0Z" fill="rgb(227,73,2)" fill-opacity="0.3"></path>
<path d="M648.7 271l3.8 0l0 -3.3l-3.8 0Z" fill="rgb(227,73,2)" fill-opacity="0.3"></path>
<path d="M654.2 271l3.8 0l0 -2.7l-3.8 0Z" fill="rgb(227,73,2)" fill-opacity="0.3"></path>
<path d="M659.7 271l3.8 0l0 -2.7l-3.8 0Z" fill="rgb(227,73,2)" fill-opacity="0.3"></path>
<path d="M665.1 271l3.8 0l0 -2l-3.8 0Z" fill="rgb(227,73,2)" fill-opacity="0.3"></path>
<path d="M670.6 271l3.8 0l0 -1.7l-3.8 0Z" fill="rgb(227,73,2)" fill-opacity="0.3"></path>
<path d="M676 271l3.8 0l0 -1.7l-3.8 0Z" fill="rgb(227,73,2)" fill-opacity="0.3"></path>
<path d="M681.5 271l3.8 0l0 -1.7l-3.8 0Z" fill="rgb(227,73,2)" fill-opacity="0.3"></path>
<path d="M687 271l3.8 0l0 -1.7l-3.8 0Z" fill="rgb(227,73,2)" fill-opacity="0.3"></path>
<path d="M692.4 271l3.8 0l0 -1.7l-3.8 0Z" fill="rgb(227,73,2)" fill-opacity="0.3"></path>
<path d="M697.9 271l3.8 0l0 -1.3l-3.8 0Z" fill="rgb(227,73,2)" fill-opacity="0.3"></path>
<path d="M703.3 271l3.8 0l0 -1.3l-3.8 0Z" fill="rgb(227,73,2)" fill-opacity="0.3"></path>
<path d="M708.8 271l3.8 0l0 -1l-3.8 0Z" fill="rgb(227,73,2)" fill-opacity="0.3"></path>
<path d="M714.3 271l3.8 0l0 -0.7l-3.8 0Z" fill="rgb(227,73,2)" fill-opacity="0.3"></path>
<path d="M719.7 271l3.8 0l0 -0.7l-3.8 0Z" fill="rgb(227,73,2)" fill-opacity="0.3"></path>
<path d="M725.2 271l3.8 0l0 -0.7l-3.8 0Z" fill="rgb(227,73,2)" fill-opacity="0.3"></path>
<path d="M730.6 271l3.8 0l0 -0.7l-3.8 0Z" fill="rgb(227,73,2)" fill-opacity="0.3"></path>
<path d="M736.1 271l3.8 0l0 -0.7l-3.8 0Z" fill="rgb(227,73,2)" fill-opacity="0.3"></path>
<path d="M741.6 271l3.8 0l0 -0.7l-3.8 0Z" fill="rgb(227,73,2)" fill-opacity="0.3"></path>
<path d="M747 271l3.8 0l0 -0.7l-3.8 0Z" fill="rgb(227,73,2)" fill-opacity="0.3"></path>
<path d="M752.5 271l3.8 0l0 -0.7l-3.8 0Z" fill="rgb(227,73,2)" fill-opacity="0.3"></path>
<path d="M758 271l3.8 0l0 -0.7l-3.8 0Z" fill="rgb(227,73,2)" fill-opacity="0.3"></path>
<path d="M763.4 271l3.8 0l0 -0.7l-3.8 0Z" fill="rgb(227,73,2)" fill-opacity="0.3"></path>
<path d="M768.9 271l3.8 0l0 -0.7l-3.8 0Z" fill="rgb(227,73,2)" fill-opacity="0.3"></path>
<path d="M774.3 271l3.8 0l0 -0.7l-3.8 0Z" fill="rgb(227,73,2)" fill-opacity="0.3"></path>
<path d="M779.8 271l3.8 0l0 -0.7l-3.8 0Z" fill="rgb(227,73,2)" fill-opacity="0.3"></path>
<path d="M785.3 271l3.8 0l0 -0.7l-3.8 0Z" fill="rgb(227,73,2)" fill-opacity="0.3"></path>
<path d="M790.7 271l3.8 0l0 -0.7l-3.8 0Z" fill="rgb(227,73,2)" fill-opacity="0.3"></path>
<path d="M796.2 271l3.8 0l0 -0.7l-3.8 0Z" fill="rgb(227,73,2)" fill-opacity="0.3"></path>
<path d="M801.6 271l3.8 0l0 -0.7l-3.8 0Z" fill="rgb(227,73,2)" fill-opacity="0.3"></path>
<path d="M807.1 271l3.8 0l0 -0.7l-3.8 0Z" fill="rgb(227,73,2)" fill-opacity="0.3"></path>
<path d="M812.6 271l3.8 0l0 -0.7l-3.8 0Z" fill="rgb(227,73,2)" fill-opacity="0.3"></path>
<path d="M818 271l3.8 0l0 -0.7l-3.8 0Z" fill="rgb(227,73,2)" fill-opacity="0.3"></path>
<path d="M823.5 271l3.8 0l0 -0.7l-3.8 0Z" fill="rgb(227,73,2)" fill-opacity="0.3"></path>
<path d="M828.9 271l3.8 0l0 -0.7l-3.8 0Z" fill="rgb(227,73,2)" fill-opacity="0.3"></path>
<path d="M834.4 271l3.8 0l0 -0.7l-3.8 0Z" fill="rgb(227,73,2)" fill-opacity="0.3"></path>
<path d="M839.9 271l3.8 0l0 -0.7l-3.8 0Z" fill="rgb(227,73,2)" fill-opacity="0.3"></path>
<path d="M845.3 271l3.8 0l0 -0.3l-3.8 0Z" fill="rgb(227,73,2)" fill-opacity="0.3"></path>
<path d="M850.8 271l3.8 0l0 -0.3l-3.8 0Z" fill="rgb(227,73,2)" fill-opacity="0.3"></path>
<path d="M856.2 271l3.8 0l0 -0.3l-3.8 0Z" fill="rgb(227,73,2)" fill-opacity="0.3"></path>
<path d="M861.7 271l3.8 0l0 -0.3l-3.8 0Z" fill="rgb(227,73,2)" fill-opacity="0.3"></path>
<path d="M867.2 271l3.8 0l0 -0.3l-3.8 0Z" fill="rgb(227,73,2)" fill-opacity="0.3"></path>
<path d="M872.6 271l3.8 0l0 -0.3l-3.8 0Z" fill="rgb(227,73,2)" fill-opacity="0.3"></path>
<path d="M878.1 271l3.8 0l0 -0.3l-3.8 0Z" fill="rgb(227,73,2)" fill-opacity="0.3"></path>
<path d="M883.5 271l3.8 0l0 -0.3l-3.8 0Z" fill="rgb(227,73,2)" fill-opacity="0.3"></path>
<path d="M889 271l3.8 0l0 -0.3l-3.8 0Z" fill="rgb(227,73,2)" fill-opacity="0.3"></path>
<path d="M894.5 271l3.8 0l0 -0.3l-3.8 0Z" fill="rgb(227,73,2)" fill-opacity="0.3"></path>
<path d="M899.9 271l3.8 0l0 -0.3l-3.8 0Z" fill="rgb(227,73,2)" fill-opacity="0.3"></path>
<path d="M905.4 271l3.8 0l0 -0.3l-3.8 0Z" fill="rgb(227,73,2)" fill-opacity="0.3"></path>
<path d="M910.8 271l3.8 0l0 -0.3l-3.8 0Z" fill="rgb(227,73,2)" fill-opacity="0.3"></path>
<path d="M916.3 271l3.8 0l0 -0.3l-3.8 0Z" fill="rgb(227,73,2)" fill-opacity="0.3"></path>
<path d="M921.8 271l3.8 0l0 -0.3l-3.8 0Z" fill="rgb(227,73,2)" fill-opacity="0.3"></path>
<path d="M927.2 271l3.8 0l0 -0.3l-3.8 0Z" fill="rgb(227,73,2)" fill-opacity="0.3"></path>
<path d="M-5 -5l226.9 0l0 24l-226.9 0Z" transform="translate(391.54 5)" fill="rgb(0,0,0)" fill-opacity="0" stroke="#ccc" stroke-width="0"></path>
<path d="M3.5 0L21.5 0A3.5 3.5 0 0 1 25 3.5L25 10.5A3.5 3.5 0 0 1 21.5 14L3.5 14A3.5 3.5 0 0 1 0 10.5L0 3.5A3.5 3.5 0 0 1 3.5 0" transform="translate(391.54 5)" fill="rgb(227,73,2)" fill-opacity="0.3"></path>
<text dominant-baseline="central" text-anchor="start" style="font-size:12px;font-family:sans-serif;" xml:space="preserve" x="30" y="7" transform="translate(391.54 5)" fill="#333">Times completed</text>
<path d="M0 7L25 7" transform="translate(524.1 5)" fill="#000" stroke="#E34902" stroke-width="2" stroke-linecap="butt" stroke-miterlimit="10"></path>
<path d="M18.1 7A5.6 5.6 0 1 1 18.1 6.4A5.6 5.6 0 0 1 18.1 7" transform="translate(524.1 5)" fill="#fff" stroke="#E34902" stroke-width="2" stroke-linecap="butt" stroke-miterlimit="10"></path>
<text dominant-baseline="central" text-anchor="start" style="font-size:12px;font-family:sans-serif;" x="30" y="7" transform="translate(524.1 5)" fill="#333">Eddington</text>
<path d="M-0.54 -0.89A0.6 0.6 0 1 1 0.54 -0.89C0.39 -0.56 0 -0.42 0 0C0 -0.42 -0.39 -0.56 -0.54 -0.89Z" transform="matrix(25,0,0,25,404.9018,244.2302)" fill="rgb(227,73,2)" fill-opacity="0.8"></path>
<text dominant-baseline="central" text-anchor="middle" style="font-size:12px;font-family:sans-serif;" transform="translate(404.9018 218.0873)" fill="#eee" stroke="rgb(227,73,2)" stroke-width="2" paint-order="stroke" stroke-opacity="0.8" stroke-miterlimit="2">64</text>
<g clip-path="url(#zr0-c0)">
<path d="M60.9 270.7L66.4 270.3L71.8 270L77.3 269.7L82.7 269.3L88.2 269L93.7 268.7L99.1 268.3L104.6 268L110 267.7L115.5 267.3L121 267L126.4 266.6L131.9 266.3L137.3 266L142.8 265.6L148.3 265.3L153.7 265L159.2 264.6L164.6 264.3L170.1 264L175.6 263.6L181 263.3L186.5 263L191.9 262.6L197.4 262.3L202.9 262L208.3 261.6L213.8 261.3L219.2 261L224.7 260.6L230.2 260.3L235.6 259.9L241.1 259.6L246.5 259.3L252 258.9L257.5 258.6L262.9 258.3L268.4 257.9L273.8 257.6L279.3 257.3L284.8 256.9L290.2 256.6L295.7 256.3L301.2 255.9L306.6 255.6L312.1 255.3L317.5 254.9L323 254.6L328.5 254.3L333.9 253.9L339.4 253.6L344.8 253.2L350.3 252.9L355.8 252.6L361.2 252.2L366.7 251.9L372.1 251.6L377.6 251.2L383.1 250.9L388.5 250.6L394 250.2L399.4 249.9L404.9 249.6L410.4 249.2L415.8 248.9L421.3 248.6L426.7 248.2L432.2 247.9L437.7 247.6L443.1 247.2L448.6 246.9L454 246.6L459.5 246.2L465 245.9L470.4 245.5L475.9 245.2L481.3 244.9L486.8 244.5L492.3 244.2L497.7 243.9L503.2 243.5L508.7 243.2L514.1 242.9L519.6 242.5L525 242.2L530.5 241.9L536 241.5L541.4 241.2L546.9 240.9L552.3 240.5L557.8 240.2L563.3 239.9L568.7 239.5L574.2 239.2L579.6 238.8L585.1 238.5L590.6 238.2L596 237.8L601.5 237.5L606.9 237.2L612.4 236.8L617.9 236.5L623.3 236.2L628.8 235.8L634.2 235.5L639.7 235.2L645.2 234.8L650.6 234.5L656.1 234.2L661.5 233.8L667 233.5L672.5 233.2L677.9 232.8L683.4 232.5L688.8 232.1L694.3 231.8L699.8 231.5L705.2 231.1L710.7 230.8L716.2 230.5L721.6 230.1L727.1 229.8L732.5 229.5L738 229.1L743.5 228.8L748.9 228.5L754.4 228.1L759.8 227.8L765.3 227.5L770.8 227.1L776.2 226.8L781.7 226.5L787.1 226.1L792.6 225.8L798.1 225.5L803.5 225.1L809 224.8L814.4 224.4L819.9 224.1L825.4 223.8L830.8 223.4L836.3 223.1L841.7 222.8L847.2 222.4L852.7 222.1L858.1 221.8L863.6 221.4L869 221.1L874.5 220.8L880 220.4L885.4 220.1L890.9 219.8L896.3 219.4L901.8 219.1L907.3 218.8L912.7 218.4L918.2 218.1L923.6 217.7L929.1 217.4" fill="none" stroke="#E34902" stroke-width="2" stroke-linejoin="bevel"></path>
</g>
<defs >
<clipPath id="zr0-c0">
<path d="M57 59l876 0l0 213l-876 0Z" fill="#000"></path>
</clipPath>
</defs>
</svg>