<svg width="1000" height="300" xmlns="http://www.w3.org/2000/svg" xmlns:xlink="http://www.w3.org/1999/xlink" version="1.1" baseProfile="full" viewBox="0 0 1000 300">
<rect width="1000" height="300" x="0" y="0" id="0" fill="#ffffff"></rect>
<path d="M58.2 271.5L931.8 271.5" fill="none" stroke="#E0E6F1"></path>
<path d="M58.2 225.5L931.8 225.5" fill="none" stroke="#E0E6F1"></path>
<path d="M58.2 179.5L931.8 179.5" fill="none" stroke="#E0E6F1"></path>
<path d="M58.2 133.5L931.8 133.5" fill="none" stroke="#E0E6F1"></path>
<path d="M58.2 87.5L931.8 87.5" fill="none" stroke="#E0E6F1"></path>
<path d="M58.2 60.5L931.8 60.5" fill="none" stroke="#E0E6F1"></path>
<path d="M58.2 271.5L931.8 271.5" fill="none" stroke="#6E7079" stroke-linecap="round"></path>
<path d="M61.5 271L61.5 276" fill="none" stroke="#6E7079"></path>
<path d="M110.5 271L110.5 276" fill="none" stroke="#6E7079"></path>
<path d="M159.5 271L159.5 276" fill="none" stroke="#6E7079"></path>
<path d="M208.5 271L208.5 276" fill="none" stroke="#6E7079"></path>
<path d="M257.5 271L257.5 276" fill="none" stroke="#6E7079"></path>
<path d="M306.5 271L306.5 276" fill="none" stroke="#6E7079"></path>
<path d="M356.5 271L356.5 276" fill="none" stroke="#6E7079"></path>
<path d="M405.5 271L405.5 276" fill="none" stroke="#6E7079"></path>
<path d="M454.5 271L454.5 276" fill="none" stroke="#6E7079"></path>
<path d="M503.5 271L503.5 276" fill="none" stroke="#6E7079"></path>
<path d="M552.5 271L552.5 276" fill="none" stroke="#6E7079"></path>
<path d="M601.5 271L601.5 276" fill="none" stroke="#6E7079"></path>
<path d="M650.5 271L650.5 276" fill="none" stroke="#6E7079"></path>
<path d="M700.5 271L700.5 276" fill="none" stroke="#6E7079"></path>
<path d="M749.5 271L749.5 276" fill="none" stroke="#6E7079"></path>
<path d="M798.5 271L798.5 276" fill="none" stroke="#6E7079"></path>
<path d="M847.5 271L847.5 276" fill="none" stroke="#6E7079"></path>
<path d="M896.5 271L896.5 276" fill="none" stroke="#6E7079"></path>
<text dominant-baseline="central" text-anchor="end" style="font-size:12px;font-family:sans-serif;" transform="translate(50.16 271)" fill="#6E7079">0</text>
<text dominant-baseline="central" text-anchor="end" style="font-size:12px;font-family:sans-serif;" transform="translate(50.16 225.1304)" fill="#6E7079">150</text>
<text dominant-baseline="central" text-anchor="end" style="font-size:12px;font-family:sans-serif;" transform="translate(50.16 179.2609)" fill="#6E7079">300</text>
<text dominant-baseline="central" text-anchor="end" style="font-size:12px;font-family:sans-serif;" transform="translate(50.16 133.3913)" fill="#6E7079">450</text>
<text dominant-baseline="central" text-anchor="end" style="font-size:12px;font-family:sans-serif;" transform="translate(50.16 87.5217)" fill="#6E7079">600</text>
<text dominant-baseline="central" text-anchor="end" style="font-size:12px;font-family:sans-serif;" transform="translate(50.16 60)" fill="#6E7079">690</text>
<text dominant-baseline="central" text-anchor="start" style="font-size:12px;font-family:sans-serif;" transform="translate(939.84 271)" fill="#6E7079">0</text>
<text dominant-baseline="central" text-anchor="start" style="font-size:12px;font-family:sans-serif;" transform="translate(939.84 225.1304)" fill="#6E7079">150</text>
<text dominant-baseline="central" text-anchor="start" style="font-size:12px;font-family:sans-serif;" transform="translate(939.84 179.2609)" fill="#6E7079">300</text>
<text dominant-baseline="central" text-anchor="start" style="font-size:12px;font-family:sans-serif;" transform="translate(939.84 133.3913)" fill="#6E7079">450</text>
<text dominant-baseline="central" text-anchor="start" style="font-size:12px;font-family:sans-serif;" transform="translate(939.84 87.5217)" fill="#6E7079">600</text>
<text dominant-baseline="central" text-anchor="start" style="font-size:12px;font-family:sans-serif;" transform="translate(939.84 60)" fill="#6E7079">690</text>
<text dominant-baseline="central" text-anchor="middle" style="font-size:12px;font-family:sans-serif;" y="6" transform="translate(60.8903 279)" fill="#6E7079">1km</text>
<text dominant-baseline="central" text-anchor="middle" style="font-size:12px;font-family:sans-serif;" y="6" transform="translate(110.0348 279)" fill="#6E7079">10km</text>
<text dominant-baseline="central" text-anchor="middle" style="font-size:12px;font-family:sans-serif;" y="6" transform="translate(159.1793 279)" fill="#6E7079">19km</text>
<text dominant-baseline="central" text-anchor="middle" style="font-size:12px;font-family:sans-serif;" y="6" transform="translate(208.3238 279)" fill="#6E7079">28km</text>
<text dominant-baseline="central" text-anchor="middle" style="font-size:12px;font-family:sans-serif;" y="6" transform="translate(257.4683 279)" fill="#6E7079">37km</text>
<text dominant-baseline="central" text-anchor="middle" style="font-size:12px;font-family:sans-serif;" y="6" transform="translate(306.6128 279)" fill="#6E7079">46km</text>
<text dominant-baseline="central" text-anchor="middle" style="font-size:12px;font-family:sans-serif;" y="6" transform="translate(355.7573 279)" fill="#6E7079">55km</text>
<text dominant-baseline="central" text-anchor="middle" style="font-size:12px;font-family:sans-serif;" y="6" transform="translate(404.9018 279)" fill="#6E7079">64km</text>
<text dominant-baseline="central" text-anchor="middle" style="font-size:12px;font-family:sans-serif;" y="6" transform="translate(454.0463 279)" fill="#6E7079">73km</text>
<text dominant-baseline="central" text-anchor="middle" style="font-size:12px;font-family:sans-serif;" y="6" transform="translate(503.1908 279)" fill="#6E7079">82km</text>
<text dominant-baseline="central" text-anchor="middle" style="font-size:12px;font-family:sans-serif;" y="6" transform="translate(552.3353 279)" fill="#6E7079">91km</text>
<text dominant-baseline="central" text-anchor="middle" style="font-size:12px;font-family:sans-serif;" y="6" transform="translate(601.4798 279)" fill="#6E7079">100km</text>
<text dominant-baseline="central" text-anchor="middle" style="font-size:12px;font-family:sans-serif;" y="6" transform="translate(650.6243 279)" fill="#6E7079">109km</text>
<text dominant-baseline="central" text-anchor="middle" style="font-size:12px;font-family:sans-serif;" y="6" transform="translate(699.7688 279)" fill="#6E7079">118km</text>
<text dominant-baseline="central" text-anchor="middle" style="font-size:12px;font-family:sans-serif;" y="6" transform="translate(748.9133 279)" fill="#6E7079">127km</text>
<text dominant-baseline="central" text-anchor="middle" style="font-size:12px;font-family:sans-serif;" y="6" transform="translate(798.0578 279)" fill="#6E7079">136km</text>
<text dominant-baseline="central" text-anchor="middle" style="font-size:12px;font-family:sans-serif;" y="6" transform="translate(847.2023 279)" fill="#6E7079">145km</text>
<text dominant-baseline="central" text-anchor="middle" style="font-size:12px;font-family:sans-serif;" y="6" transform="translate(896.3468 279)" fill="#6E7079">154km</text>
<path d="M59 271l3.8 0l0 -203.7l-3.8 0Z" fill="rgb(227,73,2)" fill-opacity="0.3"></path>
<path d="M64.5 271l3.8 0l0 -200.3l-3.8 0Z" fill="rgb(227,73,2)" fill-opacity="0.3"></path>
<path d="M69.9 271l3.8 0l0 -189l-3.8 0Z" fill="rgb(227,73,2)" fill-opacity="0.3"></path>
<path d="M75.4 271l3.8 0l0 -182.9l-3.8 0Z" fill="rgb(227,73,2)" fill-opacity="0.3"></path>
<path d="M80.8 271l3.8 0l0 -178.3l-3.8 0Z" fill="rgb(227,73,2)" fill-opacity="0.3"></path>
<path d="M86.3 271l3.8 0l0 -174l-3.8 0Z" fill="rgb(227,73,2)" fill-opacity="0.3"></path>
<path d="M91.8 271l3.8 0l0 -167.6l-3.8 0Z" fill="rgb(227,73,2)" fill-opacity="0.3"></path>
<path d="M97.2 271l3.8 0l0 -156.6l-3.8 0Z" fill="rgb(227,73,2)" fill-opacity="0.3"></path>
<path d="M102.7 271l3.8 0l0 -140.4l-3.8 0Z" fill="rgb(227,73,2)" fill-opacity="0.3"></path>
<path d="M108.2 271l3.8 0l0 -129.7l-3.8 0Z" fill="rgb(227,73,2)" fill-opacity="0.3"></path>
<path d="M113.6 271l3.8 0l0 -124.5l-3.8 0Z" fill="rgb(227,73,2)" fill-opacity="0.3"></path>
<path d="M119.1 271l3.8 0l0 -119.6l-3.8 0Z" fill="rgb(227,73,2)" fill-opacity="0.3"></path>
<path d="M124.5 271l3.8 0l0 -117.7l-3.8 0Z" fill="rgb(227,73,2)" fill-opacity="0.3"></path>
<path d="M130 271l3.8 0l0 -107.6l-3.8 0Z" fill="rgb(227,73,2)" fill-opacity="0.3"></path>
<path d="M135.5 271l3.8 0l0 -93.6l-3.8 0Z" fill="rgb(227,73,2)" fill-opacity="0.3"></path>
<path d="M140.9 271l3.8 0l0 -91.1l-3.8 0Z" fill="rgb(227,73,2)" fill-opacity="0.3"></path>
<path d="M146.4 271l3.8 0l0 -86.5l-3.8 0Z" fill="rgb(227,73,2)" fill-opacity="0.3"></path>
<path d="M151.8 271l3.8 0l0 -77.7l-3.8 0Z" fill="rgb(227,73,2)" fill-opacity="0.3"></path>
<path d="M157.3 271l3.8 0l0 -70.9l-3.8 0Z" fill="rgb(227,73,2)" fill-opacity="0.3"></path>
<path d="M162.8 271l3.8 0l0 -63l-3.8 0Z" fill="rgb(227,73,2)" fill-opacity="0.3"></path>
<path d="M168.2 271l3.8 0l0 -55.7l-3.8 0Z" fill="rgb(227,73,2)" fill-opacity="0.3"></path>
<path d="M173.7 271l3.8 0l0 -52.3l-3.8 0Z" fill="rgb(227,73,2)" fill-opacity="0.3"></path>
<path d="M179.1 271l3.8 0l0 -51.4l-3.8 0Z" fill="rgb(227,73,2)" fill-opacity="0.3"></path>
<path d="M184.6 271l3.8 0l0 -50.2l-3.8 0Z" fill="rgb(227,73,2)" fill-opacity="0.3"></path>
<path d="M190.1 271l3.8 0l0 -48.9l-3.8 0Z" fill="rgb(227,73,2)" fill-opacity="0.3"></path>
<path d="M195.5 271l3.8 0l0 -48.6l-3.8 0Z" fill="rgb(227,73,2)" fill-opacity="0.3"></path>
<path d="M201 271l3.8 0l0 -48l-3.8 0Z" fill="rgb(227,73,2)" fill-opacity="0.3"></path>
<path d="M206.4 271l3.8 0l0 -47.4l-3.8 0Z" fill="rgb(227,73,2)" fill-opacity="0.3"></path>
<path d="M211.9 271l3.8 0l0 -45.9l-3.8 0Z" fill="rgb(227,73,2)" fill-opacity="0.3"></path>
<path d="M217.4 271l3.8 0l0 -45.3l-3.8 0Z" fill="rgb(227,73,2)" fill-opacity="0.3"></path>
<path d="M222.8 271l3.8 0l0 -44.6l-3.8 0Z" fill="rgb(227,73,2)" fill-opacity="0.3"></path>
<path d="M228.3 271l3.8 0l0 -43.7l-3.8 0Z" fill="rgb(227,73,2)" fill-opacity="0.3"></path>
<path d="M233.7 271l3.8 0l0 -43.7l-3.8 0Z" fill="rgb(227,73,2)" fill-opacity="0.3"></path>
<path d="M239.2 271l3.8 0l0 -43.4l-3.8 0Z" fill="rgb(227,73,2)" fill-opacity="0.3"></path>
<path d="M244.7 271l3.8 0l0 -42.5l-3.8 0Z" fill="rgb(227,73,2)" fill-opacity="0.3"></path>
<path d="M250.1 271l3.8 0l0 -41.9l-3.8 0Z" fill="rgb(227,73,2)" fill-opacity="0.3"></path>
<path d="M255.6 271l3.8 0l0 -41l-3.8 0Z" fill="rgb(227,73,2)" fill-opacity="0.3"></path>
<path d="M261 271l3.8 0l0 -40.4l-3.8 0Z" fill="rgb(227,73,2)" fill-opacity="0.3"></path>
<path d="M266.5 271l3.8 0l0 -38.8l-3.8 0Z" fill="rgb(227,73,2)" fill-opacity="0.3"></path>
<path d="M272 271l3.8 0l0 -37.6l-3.8 0Z" fill="rgb(227,73,2)" fill-opacity="0.3"></path>
<path d="M277.4 271l3.8 0l0 -36.4l-3.8 0Z" fill="rgb(227,73,2)" fill-opacity="0.3"></path>
<path d="M282.9 271l3.8 0l0 -36.1l-3.8 0Z" fill="rgb(227,73,2)" fill-opacity="0.3"></path>
<path d="M288.3 271l3.8 0l0 -35.2l-3.8 0Z" fill="rgb(227,73,2)" fill-opacity="0.3"></path>
<path d="M293.8 271l3.8 0l0 -34.6l-3.8 0Z" fill="rgb(227,73,2)" fill-opacity="0.3"></path>
<path d="M299.3 271l3.8 0l0 -32.1l-3.8 0Z" fill="rgb(227,73,2)" fill-opacity="0.3"></path>
<path d="M304.7 271l3.8 0l0 -30.9l-3.8 0Z" fill="rgb(227,73,2)" fill-opacity="0.3"></path>
<path d="M310.2 271l3.8 0l0 -30l-3.8 0Z" fill="rgb(227,73,2)" fill-opacity="0.3"></path>
<path d="M315.6 271l3.8 0l0 -29.7l-3.8 0Z" fill="rgb(227,73,2)" fill-opacity="0.3"></path>
<path d="M321.1 271l3.8 0l0 -29.1l-3.8 0Z" fill="rgb(227,73,2)" fill-opacity="0.3"></path>
<path d="M326.6 271l3.8 0l0 -28.4l-3.8 0Z" fill="rgb(227,73,2)" fill-opacity="0.3"></path>
<path d="M332 271l3.8 0l0 -27.2l-3.8 0Z" fill="rgb(227,73,2)" fill-opacity="0.3"></path>
<path d="M337.5 271l3.8 0l0 -26.9l-3.8 0Z" fill="rgb(227,73,2)" fill-opacity="0.3"></path>
<path d="M343 271l3.8 0l0 -26l-3.8 0Z" fill="rgb(227,73,2)" fill-opacity="0.3"></path>
<path d="M348.4 271l3.8 0l0 -25.1l-3.8 0Z" fill="rgb(227,73,2)" fill-opacity="0.3"></path>
<path d="M353.9 271l3.8 0l0 -23.9l-3.8 0Z" fill="rgb(227,73,2)" fill-opacity="0.3"></path>
<path d="M359.3 271l3.8 0l0 -23.9l-3.8 0Z" fill="rgb(227,73,2)" fill-opacity="0.3"></path>
<path d="M364.8 271l3.8 0l0 -22.9l-3.8 0Z" fill="rgb(227,73,2)" fill-opacity="0.3"></path>
<path d="M370.3 271l3.8 0l0 -22.6l-3.8 0Z" fill="rgb(227,73,2)" fill-opacity="0.3"></path>
<path d="M375.7 271l3.8 0l0 -22.6l-3.8 0Z" fill="rgb(227,73,2)" fill-opacity="0.3"></path>
<path d="M381.2 271l3.8 0l0 -22.6l-3.8 0Z" fill="rgb(227,73,2)" fill-opacity="0.3"></path>
<path d="M386.6 271l3.8 0l0 -21.7l-3.8 0Z" fill="rgb(227,73,2)" fill-opacity="0.3"></path>
<path d="M392.1 271l3.8 0l0 -20.5l-3.8 0Z" fill="rgb(227,73,2)" fill-opacity="0.3"></path>
<path d="M397.6 271l3.8 0l0 -20.5l-3.8 0Z" fill="rgb(227,73,2)" fill-opacity="0.8"></path>
<path d="M403 271l3.8 0l0 -18.7l-3.8 0Z" fill="rgb(227,73,2)" fill-opacity="0.3"></path>
<path d="M408.5 271l3.8 0l0 -17.7l-3.8 0Z" fill="rgb(227,73,2)" fill-opacity="0.3"></path>
<path d="M413.9 271l3.8 0l0 -17.1l-3.8 0Z" fill="rgb(227,73,2)" fill-opacity="0.3"></path>
<path d="M419.4 271l3.8 0l0 -16.8l-3.8 0Z" fill="rgb(227,73,2)" fill-opacity="0.3"></path>
<path d="M424.9 271l3.8 0l0 -15.9l-3.8 0Z" fill="rgb(227,73,2)" fill-opacity="0.3"></path>
<path d="M430.3 271l3.8 0l0 -14.1l-3.8 0Z" fill="rgb(227,73,2)" fill-opacity="0.3"></path>
<path d="M435.8 271l3.8 0l0 -13.8l-3.8 0Z" fill="rgb(227,73,2)" fill-opacity="0.3"></path>
<path d="M441.2 271l3.8 0l0 -13.8l-3.8 0Z" fill="rgb(227,73,2)" fill-opacity="0.3"></path>
<path d="M446.7 271l3.8 0l0 -13.5l-3.8 0Z" fill="rgb(227,73,2)" fill-opacity="0.3"></path>
<path d="M452.2 271l3.8 0l0 -12.8l-3.8 0Z" fill="rgb(227,73,2)" fill-opacity="0.3"></path>
<path d="M457.6 271l3.8 0l0 -12.8l-3.8 0Z" fill="rgb(227,73,2)" fill-opacity="0.3"></path>
<path d="M463.1 271l3.8 0l0 -12.8l-3.8 0Z" fill="rgb(227,73,2)" fill-opacity="0.3"></path>
<path d="M468.5 271l3.8 0l0 -11.9l-3.8 0Z" fill="rgb(227,73,2)" fill-opacity="0.3"></path>
<path d="M474 271l3.8 0l0 -11.9l-3.8 0Z" fill="rgb(227,73,2)" fill-opacity="0.3"></path>
<path d="M479.5 271l3.8 0l0 -11.6l-3.8 0Z" fill="rgb(227,73,2)" fill-opacity="0.3"></path>
<path d="M484.9 271l3.8 0l0 -11l-3.8 0Z" fill="rgb(227,73,2)" fill-opacity="0.3"></path>
<path d="M490.4 271l3.8 0l0 -11l-3.8 0Z" fill="rgb(227,73,2)" fill-opacity="0.3"></path>
<path d="M495.8 271l3.8 0l0 -10.1l-3.8 0Z" fill="rgb(227,73,2)" fill-opacity="0.3"></path>
<path d="M501.3 271l3.8 0l0 -9.5l-3.8 0Z" fill="rgb(227,73,2)" fill-opacity="0.3"></path>
<path d="M506.8 271l3.8 0l0 -9.2l-3.8 0Z" fill="rgb(227,73,2)" fill-opacity="0.3"></path>
<path d="M512.2 271l3.8 0l0 -8.9l-3.8 0Z" fill="rgb(227,73,2)" fill-opacity="0.3"></path>
<path d="M517.7 271l3.8 0l0 -8.6l-3.8 0Z" fill="rgb(227,73,2)" fill-opacity="0.3"></path>
<path d="M523.1 271l3.8 0l0 -8l-3.8 0Z" fill="rgb(227,73,2)" fill-opacity="0.3"></path>
<path d="M528.6 271l3.8 0l0 -7.6l-3.8 0Z" fill="rgb(227,73,2)" fill-opacity="0.3"></path>
<path d="M534.1 271l3.8 0l0 -7.6l-3.8 0Z" fill="rgb(227,73,2)" fill-opacity="0.3"></path>
<path d="M539.5 271l3.8 0l0 -7.6l-3.8 0Z" fill="rgb(227,73,2)" fill-opacity="0.3"></path>
<path d="M545 271l3.8 0l0 -7.6l-3.8 0Z" fill="rgb(227,73,2)" fill-opacity="0.3"></path>
<path d="M550.5 271l3.8 0l0 -7.3l-3.8 0Z" fill="rgb(227,73,2)" fill-opacity="0.3"></path>
<path d="M555.9 271l3.8 0l0 -7l-3.8 0Z" fill="rgb(227,73,2)" fill-opacity="0.3"></path>
<path d="M561.4 271l3.8 0l0 -7l-3.8 0Z" fill="rgb(227,73,2)" fill-opacity="0.3"></path>
<path d="M566.8 271l3.8 0l0 -6.4l-3.8 0Z" fill="rgb(227,73,2)" fill-opacity="0.3"></path>
<path d="M572.3 271l3.8 0l0 -6.1l-3.8 0Z" fill="rgb(227,73,2)" fill-opacity="0.3"></path>
<path d="M577.8 271l3.8 0l0 -5.8l-3.8 0Z" fill="rgb(227,73,2)" fill-opacity="0.3"></path>
<path d="M583.2 271l3.8 0l0 -5.8l-3.8 0Z" fill="rgb(227,73,2)" fill-opacity="0.3"></path>
<path d="M588.7 271l3.8 0l0 -5.8l-3.8 0Z" fill="rgb(227,73,2)" fill-opacity="0.3"></path>
<path d="M594.1 271l3.8 0l0 -5.8l-3.8 0Z" fill="rgb(227,73,2)" fill-opacity="0.3"></path>
<path d="M599.6 271l3.8 0l0 -5.8l-3.8 0Z" fill="rgb(227,73,2)" fill-opacity="0.3"></path>
<path d="M605.1 271l3.8 0l0 -5.2l-3.8 0Z" fill="rgb(227,73,2)" fill-opacity="0.3"></path>
<path d="M610.5 271l3.8 0l0 -4.6l-3.8 0Z" fill="rgb(227,73,2)" fill-opacity="0.3"></path>
<path d="M616 271l3.8 0l0 -4.6l-3.8 0Z" fill="rgb(227,73,2)" fill-opacity="0.3"></path>
<path d="M621.4 271l3.8 0l0 -4.3l-3.8 0Z" fill="rgb(227,73,2)" fill-opacity="0.3"></path>
<path d="M626.9 271l3.8 0l0 -4.3l-3.8 0Z" fill="rgb(227,73,2)" fill-opacity="0.3"></path>
<path d="M632.4 271l3.8 0l0 -4l-3.8 0Z" fill="rgb(227,73,2)" fill-opacity="0.3"></path>
<path d="M637.8 271l3.8 0l0 -4l-3.8 0Z" fill="rgb(227,73,2)" fill-opacity="0.3"></path>
<path d="M643.3 271l3.8 0l0 -3.1l-3.8 0Z" fill="rgb(227,73,2)" fill-opacity="0.3"></path>
<path d="M648.7 271l3.8 0l0 -2.8l-3.8 0Z" fill="rgb(227,73,2)" fill-opacity="0.3"></path>
<path d="M654.2 271l3.8 0l0 -2.4l-3.8 0Z" fill="rgb(227,73,2)" fill-opacity="0.3"></path>
<path d="M659.7 271l3.8 0l0 -2.1l-3.8 0Z" fill="rgb(227,73,2)" fill-opacity="0.3"></path>
<path d="M665.1 271l3.8 0l0 -1.8l-3.8 0Z" fill="rgb(227,73,2)" fill-opacity="0.3"></path>
<path d="M670.6 271l3.8 0l0 -1.5l-3.8 0Z" fill="rgb(227,73,2)" fill-opacity="0.3"></path>
<path d="M676 271l3.8 0l0 -1.5l-3.8 0Z" fill="rgb(227,73,2)" fill-opacity="0.3"></path>
<path d="M681.5 271l3.8 0l0 -1.5l-3.8 0Z" fill="rgb(227,73,2)" fill-opacity="0.3"></path>
<path d="M687 271l3.8 0l0 -1.5l-3.8 0Z" fill="rgb(227,73,2)" fill-opacity="0.3"></path>
<path d="M692.4 271l3.8 0l0 -1.5l-3.8 0Z" fill="rgb(227,73,2)" fill-opacity="0.3"></path>
<path d="M697.9 271l3.8 0l0 -1.2l-3.8 0Z" fill="rgb(227,73,2)" fill-opacity="0.3"></path>
<path d="M703.3 271l3.8 0l0 -0.9l-3.8 0Z" fill="rgb(227,73,2)" fill-opacity="0.3"></path>
<path d="M708.8 271l3.8 0l0 -0.9l-3.8 0Z" fill="rgb(227,73,2)" fill-opacity="0.3"></path>
<path d="M714.3 271l3.8 0l0 -0.6l-3.8 0Z" fill="rgb(227,73,2)" fill-opacity="0.3"></path>
<path d="M719.7 271l3.8 0l0 -0.6l-3.8 0Z" fill="rgb(227,73,2)" fill-opacity="0.3"></path>
<path d="M725.2 271l3.8 0l0 -0.6l-3.8 0Z" fill="rgb(227,73,2)" fill-opacity="0.3"></path>
<path d="M730.6 271l3.8 0l0 -0.6l-3.8 0Z" fill="rgb(227,73,2)" fill-opacity="0.3"></path>
<path d="M736.1 271l3.8 0l0 -0.6l-3.8 0Z" fill="rgb(227,73,2)" fill-opacity="0.3"></path>
<path d="M741.6 271l3.8 0l0 -0.6l-3.8 0Z" fill="rgb(227,73,2)" fill-opacity="0.3"></path>
<path d="M747 271l3.8 0l0 -0.6l-3.8 0Z" fill="rgb(227,73,2)" fill-opacity="0.3"></path>
<path d="M752.5 271l3.8 0l0 -0.6l-3.8 0Z" fill="rgb(227,73,2)" fill-opacity="0.3"></path>
<path d="M758 271l3.8 0l0 -0.6l-3.8 0Z" fill="rgb(227,73,2)" fill-opacity="0.3"></path>
<path d="M763.4 271l3.8 0l0 -0.6l-3.8 0Z" fill="rgb(227,73,2)" fill-opacity="0.3"></path>
<path d="M768.9 271l3.8 0l0 -0.6l-3.8 0Z" fill="rgb(227,73,2)" fill-opacity="0.3"></path>
<path d="M774.3 271l3.8 0l0 -0.6l-3.8 0Z" fill="rgb(227,73,2)" fill-opacity="0.3"></path>
<path d="M779.8 271l3.8 0l0 -0.6l-3.8 0Z" fill="rgb(227,73,2)" fill-opacity="0.3"></path>
<path d="M785.3 271l3.8 0l0 -0.6l-3.8 0Z" fill="rgb(227,73,2)" fill-opacity="0.3"></path>
<path d="M790.7 271l3.8 0l0 -0.6l-3.8 0Z" fill="rgb(227,73,2)" fill-opacity="0.3"></path>
<path d="M796.2 271l3.8 0l0 -0.6l-3.8 0Z" fill="rgb(227,73,2)" fill-opacity="0.3"></path>
<path d="M801.6 271l3.8 0l0 -0.6l-3.8 0Z" fill="rgb(227,73,2)" fill-opacity="0.3"></path>
<path d="M807.1 271l3.8 0l0 -0.6l-3.8 0Z" fill="rgb(227,73,2)" fill-opacity="0.3"></path>
<path d="M812.6 271l3.8 0l0 -0.6l-3.8 0Z" fill="rgb(227,73,2)" fill-opacity="0.3"></path>
<path d="M818 271l3.8 0l0 -0.6l-3.8 0Z" fill="rgb(227,73,2)" fill-opacity="0.3"></path>
<path d="M823.5 271l3.8 0l0 -0.6l-3.8 0Z" fill="rgb(227,73,2)" fill-opacity="0.3"></path>
<path d="M828.9 271l3.8 0l0 -0.6l-3.8 0Z" fill="rgb(227,73,2)" fill-opacity="0.3"></path>
<path d="M834.4 271l3.8 0l0 -0.6l-3.8 0Z" fill="rgb(227,73,2)" fill-opacity="0.3"></path>
<path d="M839.9 271l3.8 0l0 -0.6l-3.8 0Z" fill="rgb(227,73,2)" fill-opacity="0.3"></path>
<path d="M845.3 271l3.8 0l0 -0.3l-3.8 0Z" fill="rgb(227,73,2)" fill-opacity="0.3"></path>
<path d="M850.8 271l3.8 0l0 -0.3l-3.8 0Z" fill="rgb(227,73,2)" fill-opacity="0.3"></path>
<path d="M856.2 271l3.8 0l0 -0.3l-3.8 0Z" fill="rgb(227,73,2)" fill-opacity="0.3"></path>
<path d="M861.7 271l3.8 0l0 -0.3l-3.8 0Z" fill="rgb(227,73,2)" fill-opacity="0.3"></path>
<path d="M867.2 271l3.8 0l0 -0.3l-3.8 0Z" fill="rgb(227,73,2)" fill-opacity="0.3"></path>
<path d="M872.6 271l3.8 0l0 -0.3l-3.8 0Z" fill="rgb(227,73,2)" fill-opacity="0.3"></path>
<path d="M878.1 271l3.8 0l0 -0.3l-3.8 0Z" fill="rgb(227,73,2)" fill-opacity="0.3"></path>
<path d="M883.5 271l3.8 0l0 -0.3l-3.8 0Z" fill="rgb(227,73,2)" fill-opacity="0.3"></path>
<path d="M889 271l3.8 0l0 -0.3l-3.8 0Z" fill="rgb(227,73,2)" fill-opacity="0.3"></path>
<path d="M894.5 271l3.8 0l0 -0.3l-3.8 0Z" fill="rgb(227,73,2)" fill-opacity="0.3"></path>
<path d="M899.9 271l3.8 0l0 -0.3l-3.8 0Z" fill="rgb(227,73,2)" fill-opacity="0.3"></path>
<path d="M905.4 271l3.8 0l0 -0.3l-3.8 0Z" fill="rgb(227,73,2)" fill-opacity="0.3"></path>
<path d="M910.8 271l3.8 0l0 -0.3l-3.8 0Z" fill="rgb(227,73,2)" fill-opacity="0.3"></path>
<path d="M916.3 271l3.8 0l0 -0.3l-3.8 0Z" fill="rgb(227,73,2)" fill-opacity="0.3"></path>
<path d="M921.8 271l3.8 0l0 -0.3l-3.8 0Z" fill="rgb(227,73,2)" fill-opacity="0.3"></path>
<path d="M927.2 271l3.8 0l0 -0.3l-3.8 0Z" fill="rgb(227,73,2)" fill-opacity="0.3"></path>
<path d="M-5 -5l226.9 0l0 24l-226.9 0Z" transform="translate(391.54 5)" fill="rgb(0,0,0)" fill-opacity="0" stroke="#ccc" stroke-width="0"></path>
<path d="M3.5 0L21.5 0A3.5 3.5 0 0 1 25 3.5L25 10.5A3.5 3.5 0 0 1 21.5 14L3.5 14A3.5 3.5 0 0 1 0 10.5L0 3.5A3.5 3.5 0 0 1 3.5 0" transform="translate(391.54 5)" fill="rgb(227,73,2)" fill-opacity="0.3"></path>
<text dominant-baseline="central" text-anchor="start" style="font-size:12px;font-family:sans-serif;" xml:space="preserve" x="30" y="7" transform="translate(391.54 5)" fill="#333">Times completed</text>
<path d="M0 7L25 7" transform="translate(524.1 5)" fill="#000" stroke="#E34902" stroke-width="2" stroke-linecap="butt" stroke-miterlimit="10"></path>
<path d="M18.1 7A5.6 5.6 0 1 1 18.1 6.4A5.6 5.6 0 0 1 18.1 7" transform="translate(524.1 5)" fill="#fff" stroke="#E34902" stroke-width="2" stroke-linecap="butt" stroke-miterlimit="10"></path>
<text dominant-baseline="central" text-anchor="start" style="font-size:12px;font-family:sans-serif;" x="30" y="7" transform="translate(524.1 5)" fill="#333">Eddington</text>
<path d="M-0.54 -0.89A0.6 0.6 0 1 1 0.54 -0.89C0.39 -0.56 0 -0.42 0 0C0 -0.42 -0.39 -0.56 -0.54 -0.89Z" transform="matrix(25,0,0,25,399.4413,245.8174)" fill="rgb(227,73,2)" fill-opacity="0.8"></path>
<text dominant-baseline="central" text-anchor="middle" style="font-size:12px;font-family:sans-serif;" transform="translate(399.4413 219.6745)" fill="#eee" stroke="rgb(227,73,2)" stroke-width="2" paint-order="stroke" stroke-opacity="0.8" stroke-miterlimit="2">63</text>
<g clip-path="url(#zr0-c0)">
<path d="M60.9 270.7L66.4 270.4L71.8 270.1L77.3 269.8L82.7 269.5L88.2 269.2L93.7 268.9L99.1 268.6L104.6 268.2L110 267.9L115.5 267.6L121 267.3L126.4 267L131.9 266.7L137.3 266.4L142.8 266.1L148.3 265.8L153.7 265.5L159.2 265.2L164.6 264.9L170.1 264.6L175.6 264.3L181 264L186.5 263.7L191.9 263.4L197.4 263L202.9 262.7L208.3 262.4L213.8 262.1L219.2 261.8L224.7 261.5L230.2 261.2L235.6 260.9L241.1 260.6L246.5 260.3L252 260L257.5 259.7L262.9 259.4L268.4 259.1L273.8 258.8L279.3 258.5L284.8 258.2L290.2 257.9L295.7 257.5L301.2 257.2L306.6 256.9L312.1 256.6L317.5 256.3L323 256L328.5 255.7L333.9 255.4L339.4 255.1L344.8 254.8L350.3 254.5L355.8 254.2L361.2 253.9L366.7 253.6L372.1 253.3L377.6 253L383.1 252.7L388.5 252.3L394 252L399.4 251.7L404.9 251.4L410.4 251.1L415.8 250.8L421.3 250.5L426.7 250.2L432.2 249.9L437.7 249.6L443.1 249.3L448.6 249L454 248.7L459.5 248.4L465 248.1L470.4 247.8L475.9 247.5L481.3 247.1L486.8 246.8L492.3 246.5L497.7 246.2L503.2 245.9L508.7 245.6L514.1 245.3L519.6 245L525 244.7L530.5 244.4L536 244.1L541.4 243.8L546.9 243.5L552.3 243.2L557.8 242.9L563.3 242.6L568.7 242.3L574.2 241.9L579.6 241.6L585.1 241.3L590.6 241L596 240.7L601.5 240.4L606.9 240.1L612.4 239.8L617.9 239.5L623.3 239.2L628.8 238.9L634.2 238.6L639.7 238.3L645.2 238L650.6 237.7L656.1 237.4L661.5 237.1L667 236.8L672.5 236.4L677.9 236.1L683.4 235.8L688.8 235.5L694.3 235.2L699.8 234.9L705.2 234.6L710.7 234.3L716.2 234L721.6 233.7L727.1 233.4L732.5 233.1L738 232.8L743.5 232.5L748.9 232.2L754.4 231.9L759.8 231.6L765.3 231.2L770.8 230.9L776.2 230.6L781.7 230.3L787.1 230L792.6 229.7L798.1 229.4L803.5 229.1L809 228.8L814.4 228.5L819.9 228.2L825.4 227.9L830.8 227.6L836.3 227.3L841.7 227L847.2 226.7L852.7 226.4L858.1 226L863.6 225.7L869 225.4L874.5 225.1L880 224.8L885.4 224.5L890.9 224.2L896.3 223.9L901.8 223.6L907.3 223.3L912.7 223L918.2 222.7L923.6 222.4L929.1 222.1" fill="none" stroke="#E34902" stroke-width="2" stroke-linejoin="bevel"></path>
</g>
<defs >
<clipPath id="zr0-c0">
<path d="M57 59l876 0l0 213l-876 0Z" fill="#000"></path>
</clipPath>
</defs>
</svg>