<svg width="1000" height="300" xmlns="http://www.w3.org/2000/svg" xmlns:xlink="http://www.w3.org/1999/xlink" version="1.1" baseProfile="full" viewBox="0 0 1000 300">
<rect width="1000" height="300" x="0" y="0" id="0" fill="#ffffff"></rect>
<path d="M58.2 271.5L931.8 271.5" fill="none" stroke="#E0E6F1"></path>
<path d="M58.2 227.5L931.8 227.5" fill="none" stroke="#E0E6F1"></path>
<path d="M58.2 183.5L931.8 183.5" fill="none" stroke="#E0E6F1"></path>
<path d="M58.2 139.5L931.8 139.5" fill="none" stroke="#E0E6F1"></path>
<path d="M58.2 95.5L931.8 95.5" fill="none" stroke="#E0E6F1"></path>
<path d="M58.2 60.5L931.8 60.5" fill="none" stroke="#E0E6F1"></path>
<path d="M58.2 271.5L931.8 271.5" fill="none" stroke="#6E7079" stroke-linecap="round"></path>
<path d="M61.5 271L61.5 276" fill="none" stroke="#6E7079"></path>
<path d="M110.5 271L110.5 276" fill="none" stroke="#6E7079"></path>
<path d="M159.5 271L159.5 276" fill="none" stroke="#6E7079"></path>
<path d="M208.5 271L208.5 276" fill="none" stroke="#6E7079"></path>
<path d="M257.5 271L257.5 276" fill="none" stroke="#6E7079"></path>
<path d="M306.5 271L306.5 276" fill="none" stroke="#6E7079"></path>
<path d="M356.5 271L356.5 276" fill="none" stroke="#6E7079"></path>
<path d="M405.5 271L405.5 276" fill="none" stroke="#6E7079"></path>
<path d="M454.5 271L454.5 276" fill="none" stroke="#6E7079"></path>
<path d="M503.5 271L503.5 276" fill="none" stroke="#6E7079"></path>
<path d="M552.5 271L552.5 276" fill="none" stroke="#6E7079"></path>
<path d="M601.5 271L601.5 276" fill="none" stroke="#6E7079"></path>
<path d="M650.5 271L650.5 276" fill="none" stroke="#6E7079"></path>
<path d="M700.5 271L700.5 276" fill="none" stroke="#6E7079"></path>
<path d="M749.5 271L749.5 276" fill="none" stroke="#6E7079"></path>
<path d="M798.5 271L798.5 276" fill="none" stroke="#6E7079"></path>
<path d="M847.5 271L847.5 276" fill="none" stroke="#6E7079"></path>
<path d="M896.5 271L896.5 276" fill="none" stroke="#6E7079"></path>
<text dominant-baseline="central" text-anchor="end" style="font-size:12px;font-family:sans-serif;" transform="translate(50.16 271)" fill="#6E7079">0</text>
<text dominant-baseline="central" text-anchor="end" style="font-size:12px;font-family:sans-serif;" transform="translate(50.16 227.0417)" fill="#6E7079">150</text>
<text dominant-baseline="central" text-anchor="end" style="font-size:12px;font-family:sans-serif;" transform="translate(50.16 183.0833)" fill="#6E7079">300</text>
<text dominant-baseline="central" text-anchor="end" style="font-size:12px;font-family:sans-serif;" transform="translate(50.16 139.125)" fill="#6E7079">450</text>
<text dominant-baseline="central" text-anchor="end" style="font-size:12px;font-family:sans-serif;" transform="translate(50.16 95.1667)" fill="#6E7079">600</text>
<text dominant-baseline="central" text-anchor="end" style="font-size:12px;font-family:sans-serif;" transform="translate(50.16 60)" fill="#6E7079">720</text>
<text dominant-baseline="central" text-anchor="start" style="font-size:12px;font-family:sans-serif;" transform="translate(939.84 271)" fill="#6E7079">0</text>
<text dominant-baseline="central" text-anchor="start" style="font-size:12px;font-family:sans-serif;" transform="translate(939.84 227.0417)" fill="#6E7079">150</text>
<text dominant-baseline="central" text-anchor="start" style="font-size:12px;font-family:sans-serif;" transform="translate(939.84 183.0833)" fill="#6E7079">300</text>
<text dominant-baseline="central" text-anchor="start" style="font-size:12px;font-family:sans-serif;" transform="translate(939.84 139.125)" fill="#6E7079">450</text>
<text dominant-baseline="central" text-anchor="start" style="font-size:12px;font-family:sans-serif;" transform="translate(939.84 95.1667)" fill="#6E7079">600</text>
<text dominant-baseline="central" text-anchor="start" style="font-size:12px;font-family:sans-serif;" transform="translate(939.84 60)" fill="#6E7079">720</text>
<text dominant-baseline="central" text-anchor="middle" style="font-size:12px;font-family:sans-serif;" y="6" transform="translate(60.8903 279)" fill="#6E7079">1km</text>
<text dominant-baseline="central" text-anchor="middle" style="font-size:12px;font-family:sans-serif;" y="6" transform="translate(110.0348 279)" fill="#6E7079">10km</text>
<text dominant-baseline="central" text-anchor="middle" style="font-size:12px;font-family:sans-serif;" y="6" transform="translate(159.1793 279)" fill="#6E7079">19km</text>
<text dominant-baseline="central" text-anchor="middle" style="font-size:12px;font-family:sans-serif;" y="6" transform="translate(208.3238 279)" fill="#6E7079">28km</text>
<text dominant-baseline="central" text-anchor="middle" style="font-size:12px;font-family:sans-serif;" y="6" transform="translate(257.4683 279)" fill="#6E7079">37km</text>
<text dominant-baseline="central" text-anchor="middle" style="font-size:12px;font-family:sans-serif;" y="6" transform="translate(306.6128 279)" fill="#6E7079">46km</text>
<text dominant-baseline="central" text-anchor="middle" style="font-size:12px;font-family:sans-serif;" y="6" transform="translate(355.7573 279)" fill="#6E7079">55km</text>
<text dominant-baseline="central" text-anchor="middle" style="font-size:12px;font-family:sans-serif;" y="6" transform="translate(404.9018 279)" fill="#6E7079">64km</text>
<text dominant-baseline="central" text-anchor="middle" style="font-size:12px;font-family:sans-serif;" y="6" transform="translate(454.0463 279)" fill="#6E7079">73km</text>
<text dominant-baseline="central" text-anchor="middle" style="font-size:12px;font-family:sans-serif;" y="6" transform="translate(503.1908 279)" fill="#6E7079">82km</text>
<text dominant-baseline="central" text-anchor="middle" style="font-size:12px;font-family:sans-serif;" y="6" transform="translate(552.3353 279)" fill="#6E7079">91km</text>
<text dominant-baseline="central" text-anchor="middle" style="font-size:12px;font-family:sans-serif;" y="6" transform="translate(601.4798 279)" fill="#6E7079">100km</text>
<text dominant-baseline="central" text-anchor="middle" style="font-size:12px;font-family:sans-serif;" y="6" transform="translate(650.6243 279)" fill="#6E7079">109km</text>
<text dominant-baseline="central" text-anchor="middle" style="font-size:12px;font-family:sans-serif;" y="6" transform="translate(699.7688 279)" fill="#6E7079">118km</text>
<text dominant-baseline="central" text-anchor="middle" style="font-size:12px;font-family:sans-serif;" y="6" transform="translate(748.9133 279)" fill="#6E7079">127km</text>
<text dominant-baseline="central" text-anchor="middle" style="font-size:12px;font-family:sans-serif;" y="6" transform="translate(798.0578 279)" fill="#6E7079">136km</text>
<text dominant-baseline="central" text-anchor="middle" style="font-size:12px;font-family:sans-serif;" y="6" transform="translate(847.2023 279)" fill="#6E7079">145km</text>
<text dominant-baseline="central" text-anchor="middle" style="font-size:12px;font-family:sans-serif;" y="6" transform="translate(896.3468 279)" fill="#6E7079">154km</text>
<path d="M59 271l3.8 0l0 -208.4l-3.8 0Z" fill="rgb(227,73,2)" fill-opacity="0.3"></path>
<path d="M64.5 271l3.8 0l0 -205.1l-3.8 0Z" fill="rgb(227,73,2)" fill-opacity="0.3"></path>
<path d="M69.9 271l3.8 0l0 -193.7l-3.8 0Z" fill="rgb(227,73,2)" fill-opacity="0.3"></path>
<path d="M75.4 271l3.8 0l0 -187.8l-3.8 0Z" fill="rgb(227,73,2)" fill-opacity="0.3"></path>
<path d="M80.8 271l3.8 0l0 -183.2l-3.8 0Z" fill="rgb(227,73,2)" fill-opacity="0.3"></path>
<path d="M86.3 271l3.8 0l0 -178.8l-3.8 0Z" fill="rgb(227,73,2)" fill-opacity="0.3"></path>
<path d="M91.8 271l3.8 0l0 -172.6l-3.8 0Z" fill="rgb(227,73,2)" fill-opacity="0.3"></path>
<path d="M97.2 271l3.8 0l0 -161.8l-3.8 0Z" fill="rgb(227,73,2)" fill-opacity="0.3"></path>
<path d="M102.7 271l3.8 0l0 -145.4l-3.8 0Z" fill="rgb(227,73,2)" fill-opacity="0.3"></path>
<path d="M108.2 271l3.8 0l0 -135.1l-3.8 0Z" fill="rgb(227,73,2)" fill-opacity="0.3"></path>
<path d="M113.6 271l3.8 0l0 -130.1l-3.8 0Z" fill="rgb(227,73,2)" fill-opacity="0.3"></path>
<path d="M119.1 271l3.8 0l0 -125.4l-3.8 0Z" fill="rgb(227,73,2)" fill-opacity="0.3"></path>
<path d="M124.5 271l3.8 0l0 -123.4l-3.8 0Z" fill="rgb(227,73,2)" fill-opacity="0.3"></path>
<path d="M130 271l3.8 0l0 -113.1l-3.8 0Z" fill="rgb(227,73,2)" fill-opacity="0.3"></path>
<path d="M135.5 271l3.8 0l0 -99.6l-3.8 0Z" fill="rgb(227,73,2)" fill-opacity="0.3"></path>
<path d="M140.9 271l3.8 0l0 -97.3l-3.8 0Z" fill="rgb(227,73,2)" fill-opacity="0.3"></path>
<path d="M146.4 271l3.8 0l0 -92l-3.8 0Z" fill="rgb(227,73,2)" fill-opacity="0.3"></path>
<path d="M151.8 271l3.8 0l0 -83.5l-3.8 0Z" fill="rgb(227,73,2)" fill-opacity="0.3"></path>
<path d="M157.3 271l3.8 0l0 -76.8l-3.8 0Z" fill="rgb(227,73,2)" fill-opacity="0.3"></path>
<path d="M162.8 271l3.8 0l0 -69.2l-3.8 0Z" fill="rgb(227,73,2)" fill-opacity="0.3"></path>
<path d="M168.2 271l3.8 0l0 -61.8l-3.8 0Z" fill="rgb(227,73,2)" fill-opacity="0.3"></path>
<path d="M173.7 271l3.8 0l0 -58.3l-3.8 0Z" fill="rgb(227,73,2)" fill-opacity="0.3"></path>
<path d="M179.1 271l3.8 0l0 -57.4l-3.8 0Z" fill="rgb(227,73,2)" fill-opacity="0.3"></path>
<path d="M184.6 271l3.8 0l0 -56.3l-3.8 0Z" fill="rgb(227,73,2)" fill-opacity="0.3"></path>
<path d="M190.1 271l3.8 0l0 -54.8l-3.8 0Z" fill="rgb(227,73,2)" fill-opacity="0.3"></path>
<path d="M195.5 271l3.8 0l0 -54.5l-3.8 0Z" fill="rgb(227,73,2)" fill-opacity="0.3"></path>
<path d="M201 271l3.8 0l0 -53.6l-3.8 0Z" fill="rgb(227,73,2)" fill-opacity="0.3"></path>
<path d="M206.4 271l3.8 0l0 -52.7l-3.8 0Z" fill="rgb(227,73,2)" fill-opacity="0.3"></path>
<path d="M211.9 271l3.8 0l0 -50.7l-3.8 0Z" fill="rgb(227,73,2)" fill-opacity="0.3"></path>
<path d="M217.4 271l3.8 0l0 -49.2l-3.8 0Z" fill="rgb(227,73,2)" fill-opacity="0.3"></path>
<path d="M222.8 271l3.8 0l0 -48.4l-3.8 0Z" fill="rgb(227,73,2)" fill-opacity="0.3"></path>
<path d="M228.3 271l3.8 0l0 -46.9l-3.8 0Z" fill="rgb(227,73,2)" fill-opacity="0.3"></path>
<path d="M233.7 271l3.8 0l0 -46.3l-3.8 0Z" fill="rgb(227,73,2)" fill-opacity="0.3"></path>
<path d="M239.2 271l3.8 0l0 -45.7l-3.8 0Z" fill="rgb(227,73,2)" fill-opacity="0.3"></path>
<path d="M244.7 271l3.8 0l0 -44.8l-3.8 0Z" fill="rgb(227,73,2)" fill-opacity="0.3"></path>
<path d="M250.1 271l3.8 0l0 -44.3l-3.8 0Z" fill="rgb(227,73,2)" fill-opacity="0.3"></path>
<path d="M255.6 271l3.8 0l0 -43.4l-3.8 0Z" fill="rgb(227,73,2)" fill-opacity="0.3"></path>
<path d="M261 271l3.8 0l0 -41.9l-3.8 0Z" fill="rgb(227,73,2)" fill-opacity="0.3"></path>
<path d="M266.5 271l3.8 0l0 -40.4l-3.8 0Z" fill="rgb(227,73,2)" fill-opacity="0.3"></path>
<path d="M272 271l3.8 0l0 -39l-3.8 0Z" fill="rgb(227,73,2)" fill-opacity="0.3"></path>
<path d="M277.4 271l3.8 0l0 -37.8l-3.8 0Z" fill="rgb(227,73,2)" fill-opacity="0.3"></path>
<path d="M282.9 271l3.8 0l0 -36.6l-3.8 0Z" fill="rgb(227,73,2)" fill-opacity="0.3"></path>
<path d="M288.3 271l3.8 0l0 -35.8l-3.8 0Z" fill="rgb(227,73,2)" fill-opacity="0.3"></path>
<path d="M293.8 271l3.8 0l0 -34.9l-3.8 0Z" fill="rgb(227,73,2)" fill-opacity="0.3"></path>
<path d="M299.3 271l3.8 0l0 -32.5l-3.8 0Z" fill="rgb(227,73,2)" fill-opacity="0.3"></path>
<path d="M304.7 271l3.8 0l0 -31.4l-3.8 0Z" fill="rgb(227,73,2)" fill-opacity="0.3"></path>
<path d="M310.2 271l3.8 0l0 -30.5l-3.8 0Z" fill="rgb(227,73,2)" fill-opacity="0.3"></path>
<path d="M315.6 271l3.8 0l0 -30.2l-3.8 0Z" fill="rgb(227,73,2)" fill-opacity="0.3"></path>
<path d="M321.1 271l3.8 0l0 -29.6l-3.8 0Z" fill="rgb(227,73,2)" fill-opacity="0.3"></path>
<path d="M326.6 271l3.8 0l0 -29l-3.8 0Z" fill="rgb(227,73,2)" fill-opacity="0.3"></path>
<path d="M332 271l3.8 0l0 -27.8l-3.8 0Z" fill="rgb(227,73,2)" fill-opacity="0.3"></path>
<path d="M337.5 271l3.8 0l0 -27.5l-3.8 0Z" fill="rgb(227,73,2)" fill-opacity="0.3"></path>
<path d="M343 271l3.8 0l0 -26.4l-3.8 0Z" fill="rgb(227,73,2)" fill-opacity="0.3"></path>
<path d="M348.4 271l3.8 0l0 -25.5l-3.8 0Z" fill="rgb(227,73,2)" fill-opacity="0.3"></path>
<path d="M353.9 271l3.8 0l0 -24.3l-3.8 0Z" fill="rgb(227,73,2)" fill-opacity="0.3"></path>
<path d="M359.3 271l3.8 0l0 -24.3l-3.8 0Z" fill="rgb(227,73,2)" fill-opacity="0.3"></path>
<path d="M364.8 271l3.8 0l0 -23.2l-3.8 0Z" fill="rgb(227,73,2)" fill-opacity="0.3"></path>
<path d="M370.3 271l3.8 0l0 -22.9l-3.8 0Z" fill="rgb(227,73,2)" fill-opacity="0.3"></path>
<path d="M375.7 271l3.8 0l0 -22.9l-3.8 0Z" fill="rgb(227,73,2)" fill-opacity="0.3"></path>
<path d="M381.2 271l3.8 0l0 -22.9l-3.8 0Z" fill="rgb(227,73,2)" fill-opacity="0.3"></path>
<path d="M386.6 271l3.8 0l0 -22l-3.8 0Z" fill="rgb(227,73,2)" fill-opacity="0.3"></path>
<path d="M392.1 271l3.8 0l0 -20.8l-3.8 0Z" fill="rgb(227,73,2)" fill-opacity="0.3"></path>
<path d="M397.6 271l3.8 0l0 -20.8l-3.8 0Z" fill="rgb(227,73,2)" fill-opacity="0.3"></path>
<path d="M403 271l3.8 0l0 -18.8l-3.8 0Z" fill="rgb(227,73,2)" fill-opacity="0.8"></path>
<path d="M408.5 271l3.8 0l0 -17.9l-3.8 0Z" fill="rgb(227,73,2)" fill-opacity="0.3"></path>
<path d="M413.9 271l3.8 0l0 -17.3l-3.8 0Z" fill="rgb(227,73,2)" fill-opacity="0.3"></path>
<path d="M419.4 271l3.8 0l0 -17l-3.8 0Z" fill="rgb(227,73,2)" fill-opacity="0.3"></path>
<path d="M424.9 271l3.8 0l0 -16.1l-3.8 0Z" fill="rgb(227,73,2)" fill-opacity="0.3"></path>
<path d="M430.3 271l3.8 0l0 -14.4l-3.8 0Z" fill="rgb(227,73,2)" fill-opacity="0.3"></path>
<path d="M435.8 271l3.8 0l0 -14.1l-3.8 0Z" fill="rgb(227,73,2)" fill-opacity="0.3"></path>
<path d="M441.2 271l3.8 0l0 -14.1l-3.8 0Z" fill="rgb(227,73,2)" fill-opacity="0.3"></path>
<path d="M446.7 271l3.8 0l0 -13.8l-3.8 0Z" fill="rgb(227,73,2)" fill-opacity="0.3"></path>
<path d="M452.2 271l3.8 0l0 -13.2l-3.8 0Z" fill="rgb(227,73,2)" fill-opacity="0.3"></path>
<path d="M457.6 271l3.8 0l0 -13.2l-3.8 0Z" fill="rgb(227,73,2)" fill-opacity="0.3"></path>
<path d="M463.1 271l3.8 0l0 -13.2l-3.8 0Z" fill="rgb(227,73,2)" fill-opacity="0.3"></path>
<path d="M468.5 271l3.8 0l0 -12.3l-3.8 0Z" fill="rgb(227,73,2)" fill-opacity="0.3"></path>
<path d="M474 271l3.8 0l0 -12.3l-3.8 0Z" fill="rgb(227,73,2)" fill-opacity="0.3"></path>
<path d="M479.5 271l3.8 0l0 -12l-3.8 0Z" fill="rgb(227,73,2)" fill-opacity="0.3"></path>
<path d="M484.9 271l3.8 0l0 -11.4l-3.8 0Z" fill="rgb(227,73,2)" fill-opacity="0.3"></path>
<path d="M490.4 271l3.8 0l0 -11.4l-3.8 0Z" fill="rgb(227,73,2)" fill-opacity="0.3"></path>
<path d="M495.8 271l3.8 0l0 -10.6l-3.8 0Z" fill="rgb(227,73,2)" fill-opacity="0.3"></path>
<path d="M501.3 271l3.8 0l0 -10l-3.8 0Z" fill="rgb(227,73,2)" fill-opacity="0.3"></path>
<path d="M506.8 271l3.8 0l0 -9.7l-3.8 0Z" fill="rgb(227,73,2)" fill-opacity="0.3"></path>
<path d="M512.2 271l3.8 0l0 -9.4l-3.8 0Z" fill="rgb(227,73,2)" fill-opacity="0.3"></path>
<path d="M517.7 271l3.8 0l0 -9.1l-3.8 0Z" fill="rgb(227,73,2)" fill-opacity="0.3"></path>
<path d="M523.1 271l3.8 0l0 -8.5l-3.8 0Z" fill="rgb(227,73,2)" fill-opacity="0.3"></path>
<path d="M528.6 271l3.8 0l0 -8.2l-3.8 0Z" fill="rgb(227,73,2)" fill-opacity="0.3"></path>
<path d="M534.1 271l3.8 0l0 -8.2l-3.8 0Z" fill="rgb(227,73,2)" fill-opacity="0.3"></path>
<path d="M539.5 271l3.8 0l0 -8.2l-3.8 0Z" fill="rgb(227,73,2)" fill-opacity="0.3"></path>
<path d="M545 271l3.8 0l0 -8.2l-3.8 0Z" fill="rgb(227,73,2)" fill-opacity="0.3"></path>
<path d="M550.5 271l3.8 0l0 -7.9l-3.8 0Z" fill="rgb(227,73,2)" fill-opacity="0.3"></path>
<path d="M555.9 271l3.8 0l0 -7.6l-3.8 0Z" fill="rgb(227,73,2)" fill-opacity="0.3"></path>
<path d="M561.4 271l3.8 0l0 -7.6l-3.8 0Z" fill="rgb(227,73,2)" fill-opacity="0.3"></path>
<path d="M566.8 271l3.8 0l0 -7l-3.8 0Z" fill="rgb(227,73,2)" fill-opacity="0.3"></path>
<path d="M572.3 271l3.8 0l0 -6.7l-3.8 0Z" fill="rgb(227,73,2)" fill-opacity="0.3"></path>
<path d="M577.8 271l3.8 0l0 -6.4l-3.8 0Z" fill="rgb(227,73,2)" fill-opacity="0.3"></path>
<path d="M583.2 271l3.8 0l0 -6.4l-3.8 0Z" fill="rgb(227,73,2)" fill-opacity="0.3"></path>
<path d="M588.7 271l3.8 0l0 -6.4l-3.8 0Z" fill="rgb(227,73,2)" fill-opacity="0.3"></path>
<path d="M594.1 271l3.8 0l0 -6.4l-3.8 0Z" fill="rgb(227,73,2)" fill-opacity="0.3"></path>
<path d="M599.6 271l3.8 0l0 -6.4l-3.8 0Z" fill="rgb(227,73,2)" fill-opacity="0.3"></path>
<path d="M605.1 271l3.8 0l0 -5.9l-3.8 0Z" fill="rgb(227,73,2)" fill-opacity="0.3"></path>
<path d="M610.5 271l3.8 0l0 -5.3l-3.8 0Z" fill="rgb(227,73,2)" fill-opacity="0.3"></path>
<path d="M616 271l3.8 0l0 -5.3l-3.8 0Z" fill="rgb(227,73,2)" fill-opacity="0.3"></path>
<path d="M621.4 271l3.8 0l0 -5l-3.8 0Z" fill="rgb(227,73,2)" fill-opacity="0.3"></path>
<path d="M626.9 271l3.8 0l0 -4.7l-3.8 0Z" fill="rgb(227,73,2)" fill-opacity="0.3"></path>
<path d="M632.4 271l3.8 0l0 -4.4l-3.8 0Z" fill="rgb(227,73,2)" fill-opacity="0.3"></path>
<path d="M637.8 271l3.8 0l0 -4.4l-3.8 0Z" fill="rgb(227,73,2)" fill-opacity="0.3"></path>
<path d="M643.3 271l3.8 0l0 -3.5l-3.8 0Z" fill="rgb(227,73,2)" fill-opacity="0.3"></path>
<path d="M648.7 271l3.8 0l0 -3.2l-3.8 0Z" fill="rgb(227,73,2)" fill-opacity="0.3"></path>
<path d="M654.2 271l3.8 0l0 -2.9l-3.8 0Z" fill="rgb(227,73,2)" fill-opacity="0.3"></path>
<path d="M659.7 271l3.8 0l0 -2.6l-3.8 0Z" fill="rgb(227,73,2)" fill-opacity="0.3"></path>
<path d="M665.1 271l3.8 0l0 -2.1l-3.8 0Z" fill="rgb(227,73,2)" fill-opacity="0.3"></path>
<path d="M670.6 271l3.8 0l0 -1.8l-3.8 0Z" fill="rgb(227,73,2)" fill-opacity="0.3"></path>
<path d="M676 271l3.8 0l0 -1.8l-3.8 0Z" fill="rgb(227,73,2)" fill-opacity="0.3"></path>
<path d="M681.5 271l3.8 0l0 -1.8l-3.8 0Z" fill="rgb(227,73,2)" fill-opacity="0.3"></path>
<path d="M687 271l3.8 0l0 -1.8l-3.8 0Z" fill="rgb(227,73,2)" fill-opacity="0.3"></path>
<path d="M692.4 271l3.8 0l0 -1.8l-3.8 0Z" fill="rgb(227,73,2)" fill-opacity="0.3"></path>
<path d="M697.9 271l3.8 0l0 -1.5l-3.8 0Z" fill="rgb(227,73,2)" fill-opacity="0.3"></path>
<path d="M703.3 271l3.8 0l0 -1.2l-3.8 0Z" fill="rgb(227,73,2)" fill-opacity="0.3"></path>
<path d="M708.8 271l3.8 0l0 -1.2l-3.8 0Z" fill="rgb(227,73,2)" fill-opacity="0.3"></path>
<path d="M714.3 271l3.8 0l0 -0.9l-3.8 0Z" fill="rgb(227,73,2)" fill-opacity="0.3"></path>
<path d="M719.7 271l3.8 0l0 -0.9l-3.8 0Z" fill="rgb(227,73,2)" fill-opacity="0.3"></path>
<path d="M725.2 271l3.8 0l0 -0.9l-3.8 0Z" fill="rgb(227,73,2)" fill-opacity="0.3"></path>
<path d="M730.6 271l3.8 0l0 -0.9l-3.8 0Z" fill="rgb(227,73,2)" fill-opacity="0.3"></path>
<path d="M736.1 271l3.8 0l0 -0.9l-3.8 0Z" fill="rgb(227,73,2)" fill-opacity="0.3"></path>
<path d="M741.6 271l3.8 0l0 -0.9l-3.8 0Z" fill="rgb(227,73,2)" fill-opacity="0.3"></path>
<path d="M747 271l3.8 0l0 -0.6l-3.8 0Z" fill="rgb(227,73,2)" fill-opacity="0.3"></path>
<path d="M752.5 271l3.8 0l0 -0.6l-3.8 0Z" fill="rgb(227,73,2)" fill-opacity="0.3"></path>
<path d="M758 271l3.8 0l0 -0.6l-3.8 0Z" fill="rgb(227,73,2)" fill-opacity="0.3"></path>
<path d="M763.4 271l3.8 0l0 -0.6l-3.8 0Z" fill="rgb(227,73,2)" fill-opacity="0.3"></path>
<path d="M768.9 271l3.8 0l0 -0.6l-3.8 0Z" fill="rgb(227,73,2)" fill-opacity="0.3"></path>
<path d="M774.3 271l3.8 0l0 -0.6l-3.8 0Z" fill="rgb(227,73,2)" fill-opacity="0.3"></path>
<path d="M779.8 271l3.8 0l0 -0.6l-3.8 0Z" fill="rgb(227,73,2)" fill-opacity="0.3"></path>
<path d="M785.3 271l3.8 0l0 -0.6l-3.8 0Z" fill="rgb(227,73,2)" fill-opacity="0.3"></path>
<path d="M790.7 271l3.8 0l0 -0.6l-3.8 0Z" fill="rgb(227,73,2)" fill-opacity="0.3"></path>
<path d="M796.2 271l3.8 0l0 -0.6l-3.8 0Z" fill="rgb(227,73,2)" fill-opacity="0.3"></path>
<path d="M801.6 271l3.8 0l0 -0.6l-3.8 0Z" fill="rgb(227,73,2)" fill-opacity="0.3"></path>
<path d="M807.1 271l3.8 0l0 -0.6l-3.8 0Z" fill="rgb(227,73,2)" fill-opacity="0.3"></path>
<path d="M812.6 271l3.8 0l0 -0.6l-3.8 0Z" fill="rgb(227,73,2)" fill-opacity="0.3"></path>
<path d="M818 271l3.8 0l0 -0.6l-3.8 0Z" fill="rgb(227,73,2)" fill-opacity="0.3"></path>
<path d="M823.5 271l3.8 0l0 -0.6l-3.8 0Z" fill="rgb(227,73,2)" fill-opacity="0.3"></path>
<path d="M828.9 271l3.8 0l0 -0.6l-3.8 0Z" fill="rgb(227,73,2)" fill-opacity="0.3"></path>
<path d="M834.4 271l3.8 0l0 -0.6l-3.8 0Z" fill="rgb(227,73,2)" fill-opacity="0.3"></path>
<path d="M839.9 271l3.8 0l0 -0.6l-3.8 0Z" fill="rgb(227,73,2)" fill-opacity="0.3"></path>
<path d="M845.3 271l3.8 0l0 -0.3l-3.8 0Z" fill="rgb(227,73,2)" fill-opacity="0.3"></path>
<path d="M850.8 271l3.8 0l0 -0.3l-3.8 0Z" fill="rgb(227,73,2)" fill-opacity="0.3"></path>
<path d="M856.2 271l3.8 0l0 -0.3l-3.8 0Z" fill="rgb(227,73,2)" fill-opacity="0.3"></path>
<path d="M861.7 271l3.8 0l0 -0.3l-3.8 0Z" fill="rgb(227,73,2)" fill-opacity="0.3"></path>
<path d="M867.2 271l3.8 0l0 -0.3l-3.8 0Z" fill="rgb(227,73,2)" fill-opacity="0.3"></path>
<path d="M872.6 271l3.8 0l0 -0.3l-3.8 0Z" fill="rgb(227,73,2)" fill-opacity="0.3"></path>
<path d="M878.1 271l3.8 0l0 -0.3l-3.8 0Z" fill="rgb(227,73,2)" fill-opacity="0.3"></path>
<path d="M883.5 271l3.8 0l0 -0.3l-3.8 0Z" fill="rgb(227,73,2)" fill-opacity="0.3"></path>
<path d="M889 271l3.8 0l0 -0.3l-3.8 0Z" fill="rgb(227,73,2)" fill-opacity="0.3"></path>
<path d="M894.5 271l3.8 0l0 -0.3l-3.8 0Z" fill="rgb(227,73,2)" fill-opacity="0.3"></path>
<path d="M899.9 271l3.8 0l0 -0.3l-3.8 0Z" fill="rgb(227,73,2)" fill-opacity="0.3"></path>
<path d="M905.4 271l3.8 0l0 -0.3l-3.8 0Z" fill="rgb(227,73,2)" fill-opacity="0.3"></path>
<path d="M910.8 271l3.8 0l0 -0.3l-3.8 0Z" fill="rgb(227,73,2)" fill-opacity="0.3"></path>
<path d="M916.3 271l3.8 0l0 -0.3l-3.8 0Z" fill="rgb(227,73,2)" fill-opacity="0.3"></path>
<path d="M921.8 271l3.8 0l0 -0.3l-3.8 0Z" fill="rgb(227,73,2)" fill-opacity="0.3"></path>
<path d="M927.2 271l3.8 0l0 -0.3l-3.8 0Z" fill="rgb(227,73,2)" fill-opacity="0.3"></path>
<path d="M-5 -5l226.9 0l0 24l-226.9 0Z" transform="translate(391.54 5)" fill="rgb(0,0,0)" fill-opacity="0" stroke="#ccc" stroke-width="0"></path>
<path d="M3.5 0L21.5 0A3.5 3.5 0 0 1 25 3.5L25 10.5A3.5 3.5 0 0 1 21.5 14L3.5 14A3.5 3.5 0 0 1 0 10.5L0 3.5A3.5 3.5 0 0 1 3.5 0" transform="translate(391.54 5)" fill="rgb(227,73,2)" fill-opacity="0.3"></path>
<text dominant-baseline="central" text-anchor="start" style="font-size:12px;font-family:sans-serif;" xml:space="preserve" x="30" y="7" transform="translate(391.54 5)" fill="#333">Times completed</text>
<path d="M0 7L25 7" transform="translate(524.1 5)" fill="#000" stroke="#E34902" stroke-width="2" stroke-linecap="butt" stroke-miterlimit="10"></path>
<path d="M18.1 7A5.6 5.6 0 1 1 18.1 6.4A5.6 5.6 0 0 1 18.1 7" transform="translate(524.1 5)" fill="#fff" stroke="#E34902" stroke-width="2" stroke-linecap="butt" stroke-miterlimit="10"></path>
<text dominant-baseline="central" text-anchor="start" style="font-size:12px;font-family:sans-serif;" x="30" y="7" transform="translate(524.1 5)" fill="#333">Eddington</text>
<path d="M-0.54 -0.89A0.6 0.6 0 1 1 0.54 -0.89C0.39 -0.56 0 -0.42 0 0C0 -0.42 -0.39 -0.56 -0.54 -0.89Z" transform="matrix(25,0,0,25,404.9018,247.5375)" fill="rgb(227,73,2)" fill-opacity="0.8"></path>
<text dominant-baseline="central" text-anchor="middle" style="font-size:12px;font-family:sans-serif;" transform="translate(404.9018 221.3946)" fill="#eee" stroke="rgb(227,73,2)" stroke-width="2" paint-order="stroke" stroke-opacity="0.8" stroke-miterlimit="2">64</text>
<g clip-path="url(#zr0-c0)">
<path d="M60.9 270.7L66.4 270.4L71.8 270.1L77.3 269.8L82.7 269.5L88.2 269.2L93.7 268.9L99.1 268.7L104.6 268.4L110 268.1L115.5 267.8L121 267.5L126.4 267.2L131.9 266.9L137.3 266.6L142.8 266.3L148.3 266L153.7 265.7L159.2 265.4L164.6 265.1L170.1 264.8L175.6 264.6L181 264.3L186.5 264L191.9 263.7L197.4 263.4L202.9 263.1L208.3 262.8L213.8 262.5L219.2 262.2L224.7 261.9L230.2 261.6L235.6 261.3L241.1 261L246.5 260.7L252 260.5L257.5 260.2L262.9 259.9L268.4 259.6L273.8 259.3L279.3 259L284.8 258.7L290.2 258.4L295.7 258.1L301.2 257.8L306.6 257.5L312.1 257.2L317.5 256.9L323 256.6L328.5 256.3L333.9 256.1L339.4 255.8L344.8 255.5L350.3 255.2L355.8 254.9L361.2 254.6L366.7 254.3L372.1 254L377.6 253.7L383.1 253.4L388.5 253.1L394 252.8L399.4 252.5L404.9 252.2L410.4 252L415.8 251.7L421.3 251.4L426.7 251.1L432.2 250.8L437.7 250.5L443.1 250.2L448.6 249.9L454 249.6L459.5 249.3L465 249L470.4 248.7L475.9 248.4L481.3 248.1L486.8 247.8L492.3 247.6L497.7 247.3L503.2 247L508.7 246.7L514.1 246.4L519.6 246.1L525 245.8L530.5 245.5L536 245.2L541.4 244.9L546.9 244.6L552.3 244.3L557.8 244L563.3 243.7L568.7 243.5L574.2 243.2L579.6 242.9L585.1 242.6L590.6 242.3L596 242L601.5 241.7L606.9 241.4L612.4 241.1L617.9 240.8L623.3 240.5L628.8 240.2L634.2 239.9L639.7 239.6L645.2 239.4L650.6 239.1L656.1 238.8L661.5 238.5L667 238.2L672.5 237.9L677.9 237.6L683.4 237.3L688.8 237L694.3 236.7L699.8 236.4L705.2 236.1L710.7 235.8L716.2 235.5L721.6 235.2L727.1 235L732.5 234.7L738 234.4L743.5 234.1L748.9 233.8L754.4 233.5L759.8 233.2L765.3 232.9L770.8 232.6L776.2 232.3L781.7 232L787.1 231.7L792.6 231.4L798.1 231.1L803.5 230.9L809 230.6L814.4 230.3L819.9 230L825.4 229.7L830.8 229.4L836.3 229.1L841.7 228.8L847.2 228.5L852.7 228.2L858.1 227.9L863.6 227.6L869 227.3L874.5 227L880 226.7L885.4 226.5L890.9 226.2L896.3 225.9L901.8 225.6L907.3 225.3L912.7 225L918.2 224.7L923.6 224.4L929.1 224.1" fill="none" stroke="#E34902" stroke-width="2" stroke-linejoin="bevel"></path>
</g>
<defs >
<clipPath id="zr0-c0">
<path d="M57 59l876 0l0 213l-876 0Z" fill="#000"></path>
</clipPath>
</defs>
</svg>