<svg width="1000" height="300" xmlns="http://www.w3.org/2000/svg" xmlns:xlink="http://www.w3.org/1999/xlink" version="1.1" baseProfile="full" viewBox="0 0 1000 300">
<rect width="1000" height="300" x="0" y="0" id="0" fill="#ffffff"></rect>
<polyline points="541.5 45.4 547 31.5 562 31.5" fill="none" stroke="#5470c6"></polyline>
<polyline points="601.3 101.1 614.8 94.6 629.8 94.6" fill="none" stroke="#91cc75"></polyline>
<polyline points="608.4 180.2 622.8 184.2 637.8 184.2" fill="none" stroke="#fac858"></polyline>
<polyline points="559.7 245.3 567.7 258.1 582.7 258.1" fill="none" stroke="#ee6666"></polyline>
<polyline points="488.8 261.9 487.4 276.9 472.4 276.9" fill="none" stroke="#73c0de"></polyline>
<polyline points="406.1 212 393.6 220.3 378.6 220.3" fill="none" stroke="#3ba272"></polyline>
<polyline points="421.6 69.3 411.2 58.6 396.2 58.6" fill="none" stroke="#fc8452"></polyline>
<path d="M500 37.5A112.5 112.5 0 0 1 577.2 68.1L500 150Z" fill="#5470c6" stroke="#fff" stroke-width="2" stroke-linejoin="round"></path>
<path d="M577.2 68.1A112.5 112.5 0 0 1 612.1 140.5L500 150Z" fill="#91cc75" stroke="#fff" stroke-width="2" stroke-linejoin="round"></path>
<path d="M612.1 140.5A112.5 112.5 0 0 1 591.1 216.1L500 150Z" fill="#fac858" stroke="#fff" stroke-width="2" stroke-linejoin="round"></path>
<path d="M591.1 216.1A112.5 112.5 0 0 1 519.7 260.8L500 150Z" fill="#ee6666" stroke="#fff" stroke-width="2" stroke-linejoin="round"></path>
<path d="M519.7 260.8A112.5 112.5 0 0 1 458.8 254.7L500 150Z" fill="#73c0de" stroke="#fff" stroke-width="2" stroke-linejoin="round"></path>
<path d="M458.8 254.7A112.5 112.5 0 0 1 387.5 146.7L500 150Z" fill="#3ba272" stroke="#fff" stroke-width="2" stroke-linejoin="round"></path>
<path d="M387.5 146.7A112.5 112.5 0 0 1 500 37.5L500 150Z" fill="#fc8452" stroke="#fff" stroke-width="2" stroke-linejoin="round"></path>
<path d="M0 -15l42.8 0l0 30l-42.8 0Z" transform="translate(567.0476 31.4978)" fill="none"></path>
<text dominant-baseline="central" text-anchor="start" style="font-size:12px;font-family:sans-serif;font-weight:bold;" y="-7.5" transform="translate(567.0476 31.4978)" fill="#333" stroke="rgb(255,255,255)" stroke-width="2" paint-order="stroke" stroke-miterlimit="2">Monday</text>
<text dominant-baseline="central" text-anchor="start" style="font-size:12px;font-family:sans-serif;" y="7.5" transform="translate(567.0476 31.4978)" fill="#333" stroke="rgb(255,255,255)" stroke-width="2" paint-order="stroke" stroke-miterlimit="2">12.03%</text>
<path d="M0 -15l46.2 0l0 30l-46.2 0Z" transform="translate(634.8313 94.5922)" fill="none"></path>
<text dominant-baseline="central" text-anchor="start" style="font-size:12px;font-family:sans-serif;font-weight:bold;" y="-7.5" transform="translate(634.8313 94.5922)" fill="#333" stroke="rgb(255,255,255)" stroke-width="2" paint-order="stroke" stroke-miterlimit="2">Tuesday</text>
<text dominant-baseline="central" text-anchor="start" style="font-size:12px;font-family:sans-serif;" y="7.5" transform="translate(634.8313 94.5922)" fill="#333" stroke="rgb(255,255,255)" stroke-width="2" paint-order="stroke" stroke-miterlimit="2">11.63%</text>
<path d="M0 -15l63.6 0l0 30l-63.6 0Z" transform="translate(642.8212 184.223)" fill="none"></path>
<text dominant-baseline="central" text-anchor="start" style="font-size:12px;font-family:sans-serif;font-weight:bold;" y="-7.5" transform="translate(642.8212 184.223)" fill="#333" stroke="rgb(255,255,255)" stroke-width="2" paint-order="stroke" stroke-miterlimit="2">Wednesday</text>
<text dominant-baseline="central" text-anchor="start" style="font-size:12px;font-family:sans-serif;" y="7.5" transform="translate(642.8212 184.223)" fill="#333" stroke="rgb(255,255,255)" stroke-width="2" paint-order="stroke" stroke-miterlimit="2">11.33%</text>
<path d="M0 -15l50.2 0l0 30l-50.2 0Z" transform="translate(587.6741 258.0577)" fill="none"></path>
<text dominant-baseline="central" text-anchor="start" style="font-size:12px;font-family:sans-serif;font-weight:bold;" y="-7.5" transform="translate(587.6741 258.0577)" fill="#333" stroke="rgb(255,255,255)" stroke-width="2" paint-order="stroke" stroke-miterlimit="2">Thursday</text>
<text dominant-baseline="central" text-anchor="start" style="font-size:12px;font-family:sans-serif;" y="7.5" transform="translate(587.6741 258.0577)" fill="#333" stroke="rgb(255,255,255)" stroke-width="2" paint-order="stroke" stroke-miterlimit="2">12.21%</text>
<path d="M-34.2 -15l34.2 0l0 30l-34.2 0Z" transform="translate(467.3633 276.8722)" fill="none"></path>
<text dominant-baseline="central" text-anchor="end" style="font-size:12px;font-family:sans-serif;font-weight:bold;" y="-7.5" transform="translate(467.3633 276.8722)" fill="#333" stroke="rgb(255,255,255)" stroke-width="2" paint-order="stroke" stroke-miterlimit="2">Friday</text>
<text dominant-baseline="central" text-anchor="end" style="font-size:12px;font-family:sans-serif;" y="7.5" transform="translate(467.3633 276.8722)" fill="#333" stroke="rgb(255,255,255)" stroke-width="2" paint-order="stroke" stroke-miterlimit="2">8.76%</text>
<path d="M-48.2 -15l48.2 0l0 30l-48.2 0Z" transform="translate(373.6108 220.268)" fill="none"></path>
<text dominant-baseline="central" text-anchor="end" style="font-size:12px;font-family:sans-serif;font-weight:bold;" y="-7.5" transform="translate(373.6108 220.268)" fill="#333" stroke="rgb(255,255,255)" stroke-width="2" paint-order="stroke" stroke-miterlimit="2">Saturday</text>
<text dominant-baseline="central" text-anchor="end" style="font-size:12px;font-family:sans-serif;" y="7.5" transform="translate(373.6108 220.268)" fill="#333" stroke="rgb(255,255,255)" stroke-width="2" paint-order="stroke" stroke-miterlimit="2">19.5%</text>
<path d="M-40.9 -15l40.9 0l0 30l-40.9 0Z" transform="translate(391.1561 58.5505)" fill="none"></path>
<text dominant-baseline="central" text-anchor="end" style="font-size:12px;font-family:sans-serif;font-weight:bold;" y="-7.5" transform="translate(391.1561 58.5505)" fill="#333" stroke="rgb(255,255,255)" stroke-width="2" paint-order="stroke" stroke-miterlimit="2">Sunday</text>
<text dominant-baseline="central" text-anchor="end" style="font-size:12px;font-family:sans-serif;" y="7.5" transform="translate(391.1561 58.5505)" fill="#333" stroke="rgb(255,255,255)" stroke-width="2" paint-order="stroke" stroke-miterlimit="2">24.54%</text>
</svg>